<?xml version="1.0" encoding="utf-8" ?>
<svg baseProfile="full" height="100%" version="1.1" width="100%" xmlns="http://www.w3.org/2000/svg" xmlns:ev="http://www.w3.org/2001/xml-events" xmlns:xlink="http://www.w3.org/1999/xlink"><defs /><polygon points="248,295 247,296 243,296 248,296 249,295 254,295 255,296 256,296 255,296 254,295" /><polygon points="495,294 493,296 493,297 493,296" /><polygon points="271,294 272,294 275,297 274,296 274,295 273,295 272,294" /><polygon points="504,292 504,293 503,294 503,295 499,299 498,299 497,300 498,299 499,299 500,298 501,298 503,296 503,295 504,294" /><polygon points="445,292 445,293" /><polygon points="343,291 356,291" /><polygon points="497,290 497,292" /><polygon points="493,290" /><polygon points="425,290 424,291 423,291 424,291" /><polygon points="284,290 284,292 283,293 284,292" /><polygon points="505,289 507,289" /><polygon points="291,289 291,290 292,291 292,292 293,293 293,294 294,295 294,296 294,294 293,293 293,292 291,290" /><polygon points="423,288 425,288" /><polygon points="366,287 366,289 365,290 365,292 364,293 365,292 365,291 366,290" /><polygon points="330,287 330,289 329,290 329,293 328,294 328,295 328,294 329,293 329,291 330,290" /><polygon points="494,286 495,286" /><polygon points="294,286 294,288 296,288 296,286" /><polygon points="294,287 295,286 296,287 295,288" /><polygon points="249,286 248,287 247,287 246,288 247,287 248,288 248,293 248,288 250,286 251,286" /><polygon points="447,285 447,286 446,287 444,287 443,288 442,288 444,288 445,287 447,287" /><polygon points="370,285 370,289 369,290 369,297 371,297 374,294 375,294 374,294 372,296 371,296 370,297 369,296 369,291 370,290" /><polygon points="266,285 269,285 270,286 269,287 269,288 268,289 268,290 266,292 266,293 264,295 267,292 267,291 268,290 268,289 269,288 269,287 270,286 270,285" /><polygon points="431,284 430,285 425,285 424,286 421,286 425,286 426,285 428,285 429,286 429,289 428,290 428,293 427,294 424,294 423,295 423,298 424,298 425,297 426,297 426,295 427,294 428,294 429,293 431,293 432,294 432,299 432,297 433,296 434,296 435,295 435,293 436,292 436,286 433,286" /><polygon points="423,295 424,294 425,294 426,295 426,296 424,298 423,297" /><polygon points="428,291 429,290 431,290 432,291 432,292 431,293 429,293 428,292" /><polygon points="429,289 430,288 431,289 430,290" /><polygon points="433,286 435,286 436,287 436,291 435,292 435,294 433,296 432,295 432,290 431,289 431,288" /><polygon points="431,284 432,285 432,286 430,288 429,287 429,286" /><polygon points="404,284 402,286 402,290 401,291 401,293 402,294 402,298 405,298 407,296 406,297 405,297 404,298 403,298 402,297 402,294 401,293 401,292 402,291 402,287 403,286 403,285 404,284 406,284 408,286 407,285 407,284" /><polygon points="392,284 392,298 395,298 393,298 392,297" /><polygon points="382,284 382,298 385,298 383,298 382,297" /><polygon points="332,284 331,285 326,285 325,286 324,286 326,286 327,285 331,285 332,284 334,284 335,285 335,286 333,288 335,286 335,285 334,284" /><polygon points="307,284 307,290" /><polygon points="519,283 518,284 516,284 516,286 518,286 519,287 519,288 518,289 515,289 515,291 516,292 516,295 519,295 519,293 517,293 516,292 517,291 520,291 521,290 522,290 523,291 523,296 522,297 517,297 517,298 515,300 516,299 517,299 517,298 518,297 521,297 524,300 522,298 523,297 523,291 522,290 522,289 523,288 524,288 525,289 524,288 523,288 521,290 519,288 519,284 520,283 522,283 523,284 523,285 522,286 523,285 523,284 522,283" /><polygon points="516,294 517,293 518,293 519,294 518,295 517,295" /><polygon points="515,290 516,289 519,289 520,290 519,291 516,291" /><polygon points="516,285 517,284 518,284 519,285 518,286 517,286" /><polygon points="478,283 478,284 477,285 476,285 478,285 479,286 479,287 478,288 477,288 478,288 479,289 479,290 478,291 475,291 478,291 479,292 479,293 478,294 474,294 477,294 478,295 475,298 474,298 476,298 479,295 483,299 484,299 483,299 481,297 481,296 479,294 480,293 485,293 480,293 479,292 480,291 484,291 480,291 479,290 479,289 480,288 481,288 480,288 479,287 479,286 480,285 483,285 483,284 482,283 481,283 481,284 480,285 479,285 478,284" /><polygon points="481,284 482,283 483,284 482,285" /><polygon points="452,283 452,285 453,285 454,286 451,289 446,289 445,290 444,290 446,290 447,289 451,289 452,290 452,293 451,294 451,295 450,296 450,297 449,298 448,298 447,297 447,296 444,296 444,299 447,299 448,298 449,298 451,296 451,295 452,294 452,292 453,291 454,291 456,293 456,295 455,296 455,297 453,299 452,299 454,299 455,298 455,297 456,296 456,292 455,291 453,291 452,290 452,288 453,287 454,287 455,286 457,286 454,286 452,284" /><polygon points="444,297 445,296 446,296 447,297 447,298 446,299 445,299 444,298" /><polygon points="424,283 425,283" /><polygon points="312,283 312,293 311,294 311,295 310,296 310,297 309,298 311,296 311,295 312,294" /><polygon points="501,282 501,291" /><polygon points="512,273 514,275 514,276 514,275" /><polygon points="506,273 506,274 505,275 506,274" /><polygon points="485,269 484,270 483,270 483,272 485,272 486,271 486,269" /><polygon points="485,269 486,270 486,271 485,272 484,272 483,271" /><polygon points="494,267 494,270 493,271 491,269 491,268 491,269 492,270 492,271 493,272 492,273 491,273 493,273 493,272 494,271" /><polygon points="506,261 506,264 507,265 507,266 510,266 508,266 507,265 508,264 509,264 507,264 506,263" /><polygon points="491,261 491,264 490,265 491,264 493,264 495,262 496,262 495,262 494,263 493,263 492,264 491,263" /><polygon points="509,260 508,261 509,260 511,260 512,261 512,262 513,263 513,267 512,268 510,268 509,269 507,269 509,269 510,268 511,268 512,269 510,271 503,271 511,271 512,270 513,270 514,271 516,271 514,271 512,269 513,268 513,262 512,261 512,260" /><polygon points="487,260 487,261 486,262 484,262 483,263 481,263 483,263 484,264 483,265 483,266 482,267 482,268 481,269 483,267 485,267 486,266 487,266 488,267 488,275 487,276 488,275 488,266 485,266 484,265 484,263 485,262 489,262 488,262 487,261" /><polygon points="483,266 484,265 485,266 484,267" /><polygon points="197,252 197,253 198,254 197,253" /><polygon points="343,250 342,251 342,253 345,253 346,252 346,250" /><polygon points="342,251 343,250 345,250 346,251 344,253 343,253 342,252" /><polygon points="52,246 54,246 55,247 53,249 51,249 50,248 50,247 50,248 49,249 50,248 51,249 52,249 53,250 53,251 54,252 55,252 56,253 58,253 56,253 53,250 54,249 54,248 55,247 55,246" /><polygon points="29,246 28,247 25,247 28,247 29,246 31,246 32,247 32,248 29,251 29,252 28,253 30,251 30,250 32,248 32,246" /><polygon points="212,244 213,244 214,245 214,246 215,247 215,248 215,246 214,245 214,244" /><polygon points="46,243 46,244 41,249 43,247 44,248 44,252 45,253 44,252 44,246 46,244" /><polygon points="29,243" /><polygon points="109,241 108,242 107,242 106,243 106,252 105,253 104,253 115,253 112,253 111,252 111,241" /><polygon points="106,250 107,249 110,249 111,250 111,252 110,253 107,253 106,252" /><polygon points="106,246 107,245 110,245 111,246 111,248 110,249 107,249 106,248" /><polygon points="108,242 109,241 110,241 111,242 111,244 110,245 107,245 106,244 106,243 107,242" /><polygon points="204,240 204,241 205,242 205,247 206,248 206,250 208,250 209,249 209,248 209,249 208,250 207,250 206,249 206,248 205,247 205,242 204,241" /><polygon points="307,239 309,239 310,240 310,243 309,244 306,244 309,244 310,245 310,248 309,249 305,249 304,250 304,252 307,252 308,251 308,250 309,249 311,249 312,250 313,250 314,251 315,251 314,251 312,249 311,249 310,248 310,239" /><polygon points="306,249 307,249 308,250 306,252 305,252 304,251" /><polygon points="245,239 245,250 246,251 246,252 248,252 249,251 251,251 254,248 253,249 252,249 250,251 249,251 248,252 247,252 245,250" /><polygon points="175,239 176,239" /><polygon points="125,239 125,250 126,251 126,252 128,252 129,251 131,251 134,248 133,249 132,249 130,251 129,251 128,252 127,252 125,250" /><polygon points="295,238 296,239 297,238 296,239" /><polygon points="285,238 285,239 284,240 284,249 284,241 285,240" /><polygon points="183,238 183,247 182,248 182,251 182,249 183,248 183,245 184,244 186,244 186,242 187,241 188,241 189,242 189,244 187,246 185,246 186,246 187,247 187,251 186,252 185,251 185,249 185,251 186,252 187,252 187,247 189,245 189,241 187,241 186,240 186,239 187,238 188,238" /><polygon points="183,239 184,238 185,238 186,239 186,243 185,244 184,244 183,243" /><polygon points="168,238 168,241 167,242 165,242 167,242 168,243 168,247 167,248 166,248 165,249 164,249 164,252 166,252 167,251 167,248 168,247 170,247 171,246 174,246 175,247 175,250 173,252 170,252 173,252 175,250 175,246 170,246 169,247 168,246 168,242 169,241 170,241 169,241 168,240" /><polygon points="166,248 167,249 167,251 166,252 165,252 164,251 164,250" /><polygon points="151,238 151,239 147,243 147,244 146,245 148,247 149,247 152,250 152,251 152,249 150,247 149,247 148,246 147,246 146,245 151,240" /><polygon points="113,238 112,239 106,239 105,240 103,240 106,240 107,239 112,239 113,238 114,238 115,239 115,241 115,239 114,238" /><polygon points="45,238 45,239 44,240 45,239" /><polygon points="28,238 25,241 25,242 23,244 27,240 27,239 28,238 29,238 34,243 35,243 36,244 37,244 36,244 30,238" /><polygon points="333,237 333,240 332,241 331,241 330,242 327,242 326,243 323,243 326,243 327,242 331,242 332,241 333,242 333,246 332,247 331,247 330,246 330,245 328,245 328,249 330,251 330,252 329,253 330,252 330,251 331,250 331,248 332,247 333,247 333,242 334,241 335,241 334,241 333,240" /><polygon points="329,249 330,248 331,249 330,250" /><polygon points="328,246 329,245 330,246 330,248 329,249 328,248" /><polygon points="292,237 292,242 291,243 287,243 291,243 292,244 292,247 291,248 291,250 291,249 292,248 292,243 293,242 295,242 293,242 292,241" /><polygon points="269,237 269,250 268,251 267,251 266,252 263,252 266,252 267,251 277,251 270,251 269,250 269,244 270,243 274,243 270,243 269,242" /><polygon points="230,237 230,240 229,241 227,241 229,241 230,242 230,243 229,244 227,244 226,245 225,244 225,243 225,245 227,245 228,244 229,244 230,245 230,246 229,247 226,247 229,247 230,248 230,253 230,248 231,247 234,247 234,245 235,244 235,240 231,240 230,239" /><polygon points="230,241 231,240 234,240 235,241 235,243 234,244 234,246 233,247 231,247 230,246 230,244 231,243 232,243 231,243 230,242" /><polygon points="193,237 193,240 196,240 197,241 197,243 196,244 195,243 192,243 192,246 194,246 193,246 192,245 192,244 193,243 195,243 196,244 196,247 194,249 192,249 191,250 189,250 192,250 193,251 193,252 193,251 192,250 193,249 195,249 196,248 196,245 197,244 197,240 194,240 193,239 193,238 194,237 197,237" /><polygon points="107,237 109,237" /><polygon points="90,237 90,240 89,241 86,241 85,242 86,241 88,241 89,242 89,246 87,248 85,246 86,247 86,248 87,248 88,249 88,253 90,253 91,252 92,252 93,251 93,250 94,249 94,245 94,249 90,253 89,253 88,252 88,247 89,246 89,241 90,240" /><polygon points="65,237 67,239 67,241 68,242 68,247 66,249 66,252 73,252 67,252 66,251 66,250 68,248 68,247 69,246 70,246 71,245 72,245 73,244 72,245 71,245 70,246 69,246 68,245 68,241 67,240 67,239" /><polygon points="55,237 55,238 52,241 51,241 50,240 50,239 50,241 51,241 52,242 50,244 51,243 54,243 54,242 53,241 54,240 54,239 55,238" /><polygon points="52,242 53,241 54,242 53,243" /><polygon points="273,205 275,205" /><polygon points="483,204 482,205 482,207 485,207 486,206 486,204" /><polygon points="482,205 483,204 485,204 486,205 484,207 483,207 482,206" /><polygon points="409,203 408,204 407,204 406,205 405,205 407,205 408,206 406,208 405,208 406,208 407,207 408,207 409,206 410,206 411,205 411,204 410,203" /><polygon points="409,203 410,203 411,204 409,206 408,206 407,205" /><polygon points="313,203 313,204" /><polygon points="183,199 196,199" /><polygon points="123,199 136,199" /><polygon points="104,198 104,200 103,201 104,200" /><polygon points="33,198 32,199 22,199 32,199 33,198 34,198 35,199 37,199 35,199 34,198" /><polygon points="271,197 273,197 274,198 273,197" /><polygon points="232,197 232,201 230,203 228,203 227,204 227,206 230,206 232,204 233,204 232,204 231,203 231,202 232,201" /><polygon points="229,203 230,203 231,204 229,206 228,206 227,205" /><polygon points="111,197 111,198 112,199 112,200 113,201 113,202 114,203 114,204 114,202 113,201 113,200 111,198" /><polygon points="63,197 63,198" /><polygon points="310,196 315,196" /><polygon points="433,194 433,198 432,199 432,201 431,202 431,203 427,207 429,205 430,205 431,204 431,203 432,202 432,200 433,199" /><polygon points="389,194 388,195 384,195 389,195 390,194 391,194 392,195 390,197 390,198 389,199 389,202 390,203 391,203 392,204 393,204 394,205 396,205 394,205 393,204 392,204 389,201 389,199 392,196 392,194" /><polygon points="233,194 234,195 234,196 235,197 235,198 235,196" /><polygon points="114,194 114,196 116,196 116,194" /><polygon points="114,195 115,194 116,195 115,196" /><polygon points="447,193 449,193 450,194 450,197 449,198 446,198 449,198 450,199 450,202 449,203 445,203 444,204 444,206 447,206 448,205 448,204 449,203 451,203 452,204 453,204 454,205 455,205 454,205 452,203 451,203 450,202 450,193" /><polygon points="446,203 447,203 448,204 446,206 445,206 444,205" /><polygon points="365,193 365,204 366,205 366,206 368,206 369,205 371,205 374,202 373,203 372,203 370,205 369,205 368,206 367,206 365,204" /><polygon points="305,193 305,194 304,195 304,203 304,196 305,195" /><polygon points="227,193 227,194 226,195 225,195 226,195 227,196 227,198 227,194 228,193 230,193" /><polygon points="171,193 171,195 170,196 165,196 169,196 170,197 170,201 169,202 169,203 166,206 169,203 169,202 170,201 170,197 171,196 173,196 174,195 173,196 172,196 171,195" /><polygon points="90,193 89,194 87,194 83,198 83,201 84,202 86,202 89,199 89,198 91,196 91,194 92,193 93,194 94,194 95,195 95,196 96,197 96,200 91,205 93,203 94,203 95,202 95,201 96,200 96,196 94,194 93,194 92,193" /><polygon points="89,194 90,193 91,194 91,195 90,196 90,197 85,202 83,200 83,199 84,198 84,197 86,195 87,195 88,194" /><polygon points="64,193 65,193" /><polygon points="428,192 427,193 427,195 426,196 426,198 426,197 427,196 427,193" /><polygon points="292,192 292,194 290,196 288,196 287,197 286,197 284,195 284,193 284,195 285,196 285,198 283,200 283,204 285,204 287,202 287,201 288,200 289,200 290,199 290,196 291,195 294,195 296,197 296,200 295,201 295,202 291,206 296,201 296,196 295,195 293,195 292,194" /><polygon points="285,199 287,201 284,204 283,203 283,201" /><polygon points="288,197 289,196 290,197 290,198 288,200 287,200 285,198 286,197" /><polygon points="266,192 266,194 265,195 265,202 264,203 264,205 264,204 265,203 265,196 267,194 268,194 267,194 266,193" /><polygon points="247,192 249,192 250,193 247,196 247,198 250,198 251,197 253,197 255,199 255,201 252,204 251,204 250,205 249,204 246,204 246,206 249,206 250,205 251,205 252,204 253,204 255,202 255,198 254,197 250,197 249,198 248,198 247,197 250,194 250,192" /><polygon points="246,205 247,204 248,204 249,205 248,206 247,206" /><polygon points="148,192 148,201 147,202 147,206 147,202 149,200 150,200 149,200 148,199" /><polygon points="69,192 68,193 68,201 66,203 65,203 65,204 63,206 66,203 67,204 67,206 67,203 68,202 68,201 69,200 70,200 71,199 72,199 73,200 73,201 72,202 72,205 71,206 69,206 77,206 73,206 72,205 72,203 73,202 75,202 74,202 73,201 73,200 74,199 76,199 73,199 72,198 72,193 73,192 74,192" /><polygon points="68,193 69,192 71,192 72,193 72,198 70,200 69,200 68,199" /><polygon points="473,191 473,194 472,195 471,195 470,196 467,196 466,197 463,197 466,197 467,196 471,196 472,195 473,196 473,200 472,201 471,201 470,200 470,199 468,199 468,203 470,205 470,206 469,207 470,206 470,205 471,204 471,202 472,201 473,201 473,196 474,195 475,195 474,195 473,194" /><polygon points="469,203 470,202 471,203 470,204" /><polygon points="468,200 469,199 470,200 470,202 469,203 468,202" /><polygon points="407,191 407,192 406,193 406,194 408,194 409,195 407,197 404,197 407,197 408,198 406,200 405,200 404,201 403,201 405,201 406,202 407,202 409,200 410,200 410,199 411,198 414,201 415,201 416,202 417,202 416,202 413,199 412,199 411,198 411,197 412,196 415,196 414,196 412,194 407,194 406,193 407,192" /><polygon points="405,201 406,200 407,201 406,202" /><polygon points="408,197 409,196 410,196 411,197 411,198 408,201 407,201 406,200 408,198" /><polygon points="409,195 410,194 412,194 413,195 412,196 410,196" /><polygon points="349,191 349,194 348,195 345,195 348,195 349,196 349,197 348,198 348,200 347,201 347,203 346,204 346,205 346,204 347,203 347,202 348,201 348,199 349,198 349,195 350,194 353,194 354,195 354,197 353,198 353,201 352,202 352,205 351,206 352,205 352,203 353,202 353,199 354,198 354,195 353,194 350,194 349,193" /><polygon points="205,191 207,193 207,195 208,196 208,201 206,203 206,206 213,206 207,206 206,205 206,204 208,202 208,201 209,200 210,200 211,199 212,199 213,198 212,199 211,199 210,200 209,200 208,199 208,195 207,194 207,193" /><polygon points="46,191 46,193 45,194 45,195 44,196 45,195 48,195 49,194 50,195 50,198 48,200 47,200 48,200 49,201 49,205 48,206 44,206 49,206 50,205 54,205 55,206 54,205 50,205 49,204 49,200 50,199 50,195 51,194 53,194 50,194 49,193 49,192 49,194 48,195 46,195 45,194 46,193" /><polygon points="326,190 326,193 324,195 324,197 325,198 326,198 328,200 326,202 327,201 328,202 328,204 327,205 327,206 326,207 328,205 328,202 329,201 332,201 333,202 333,203 332,204 332,206 332,205 333,204 333,201 330,201 329,200 331,198 331,197 332,196 334,198 336,198 335,198 333,196 333,195 334,194 334,193 333,192 332,192 333,192 334,193 334,194 331,197 331,198 330,199 328,199 327,198 327,197 328,196 328,193 327,193 326,192" /><polygon points="325,194 326,193 327,193 328,194 328,195 327,196 327,197 326,198 325,198 324,197 324,196 325,195" /><polygon points="604,182 604,183 605,184 604,183" /><polygon points="293,182 295,182" /><polygon points="64,182 64,183 65,184 64,183" /><polygon points="53,182 55,182" /><polygon points="370,181 372,181" /><polygon points="363,181 363,184" /><polygon points="593,180 593,181" /><polygon points="365,180 365,182 367,184 368,184 369,185 374,185 374,184 373,183 374,184 373,185 370,185 369,184 368,184 365,181" /><polygon points="353,180 353,181" /><polygon points="184,180 184,183" /><polygon points="173,180 173,181" /><polygon points="146,180 146,181" /><polygon points="190,179 191,180 193,180 191,180" /><polygon points="186,179 186,181 189,184 194,184 190,184 189,183 188,183 186,181" /><polygon points="305,178 305,181 306,182 314,182 307,182 305,180" /><polygon points="196,178 197,178" /><polygon points="125,178 125,181 126,182 134,182 127,182 125,180" /><polygon points="85,178 85,181 86,182 94,182 87,182 85,180" /><polygon points="569,175 576,175" /><polygon points="549,175 548,176 547,176 547,179 550,179 552,177 552,175" /><polygon points="549,175 551,175 552,176 549,179 548,179 547,178 547,177" /><polygon points="384,174 384,175 385,176 384,177 383,177 385,177 385,176 384,175" /><polygon points="291,174 293,174 294,175 293,174" /><polygon points="51,174 53,174 54,175 53,174" /><polygon points="590,173 595,173" /><polygon points="350,173 355,173" /><polygon points="170,173 175,173" /><polygon points="548,172 552,172" /><polygon points="563,171 565,171 566,172 566,175 565,176 564,176 563,175 563,173 563,179 564,180 563,181 565,179 566,180 568,180 569,179 573,179 574,178 575,179 575,183 575,178 574,178 573,179 569,179 568,180 567,180 566,179 566,171" /><polygon points="563,177 564,176 565,176 566,177 566,178 564,180 563,179" /><polygon points="585,170 585,171 584,172 584,180 584,173 585,172" /><polygon points="572,170 571,171 570,171 571,171 572,172 572,173 572,171 573,170 575,170" /><polygon points="544,170 544,180 543,181 543,182 543,181 544,180" /><polygon points="510,170 509,171 507,171 503,175 503,178 504,179 506,179 509,176 509,175 511,173 511,171 512,170 513,171 514,171 515,172 515,173 516,174 516,177 511,182 513,180 514,180 515,179 515,178 516,177 516,173 514,171 513,171 512,170" /><polygon points="509,171 510,170 511,171 511,172 510,173 510,174 505,179 503,177 503,176 504,175 504,174 506,172 507,172 508,171" /><polygon points="425,170 425,181 426,182 426,183 428,183 429,182 431,182 434,179 433,180 432,180 430,182 429,182 428,183 427,183 425,181" /><polygon points="345,170 345,171 344,172 344,180 344,173 345,172" /><polygon points="265,170 265,181 266,182 266,183 268,183 269,182 271,182 274,179 273,180 272,180 270,182 269,182 268,183 267,183 265,181" /><polygon points="247,170 249,170 250,171 250,174 249,175 246,175 249,175 250,176 250,179 249,180 245,180 244,181 244,183 247,183 248,182 248,181 249,180 251,180 252,181 253,181 254,182 255,182 254,182 252,180 251,180 250,179 250,170" /><polygon points="246,180 247,180 248,181 246,183 245,183 244,182" /><polygon points="226,170 226,174 225,175 225,177 224,178 224,180 225,180 226,181 226,183 226,179 231,174 232,175 232,180 232,176 233,175 233,172 234,171 234,170 234,171 233,172 232,172 228,176 228,177 227,178 226,178 225,177 225,175 226,174" /><polygon points="224,179 225,178 226,179 225,180" /><polygon points="231,173 232,172 233,173 233,174 232,175 231,174" /><polygon points="207,170 209,170 210,171 210,174 209,175 206,175 209,175 210,176 210,179 209,180 205,180 204,181 204,183 207,183 208,182 208,181 209,180 211,180 212,181 213,181 214,182 215,182 214,182 212,180 211,180 210,179 210,170" /><polygon points="206,180 207,180 208,181 206,183 205,183 204,182" /><polygon points="165,170 165,171 164,172 164,180 164,173 165,172" /><polygon points="110,170 109,171 107,171 103,175 103,178 104,179 106,179 109,176 109,175 111,173 111,171 112,170 113,171 114,171 115,172 115,173 116,174 116,177 111,182 113,180 114,180 115,179 115,178 116,177 116,173 114,171 113,171 112,170" /><polygon points="109,171 110,170 111,171 111,172 110,173 110,174 105,179 103,177 103,176 104,175 104,174 106,172 107,172 108,171" /><polygon points="27,170 29,170 30,171 30,174 29,175 26,175 29,175 30,176 30,179 29,180 25,180 24,181 24,183 27,183 28,182 28,181 29,180 31,180 32,181 33,181 34,182 35,182 34,182 32,180 31,180 30,179 30,170" /><polygon points="26,180 27,180 28,181 26,183 25,183 24,182" /><polygon points="487,169 489,169 490,170 487,173 487,175 490,175 491,174 493,174 495,176 495,178 492,181 491,181 490,182 489,181 486,181 486,183 489,183 490,182 491,182 492,181 493,181 495,179 495,175 494,174 490,174 489,175 488,175 487,174 490,171 490,169" /><polygon points="486,182 487,181 488,181 489,182 488,183 487,183" /><polygon points="475,169 476,170 477,169 476,170" /><polygon points="465,169 465,170 464,171 464,180 464,172 465,171" /><polygon points="385,169 385,171 384,172 382,172 385,172" /><polygon points="307,169 309,171 311,171 310,171 309,170 308,170" /><polygon points="286,169 286,171 285,172 285,179 284,180 284,182 284,181 285,180 285,173 287,171 288,171 287,171 286,170" /><polygon points="185,169 189,169 190,170 189,171 189,176 188,177 187,177 186,176 186,174 185,173 185,172 185,174 186,175 186,176 187,177 191,177 190,177 189,176 189,172 190,171 193,171 194,172 194,174 194,171 191,171 190,170 191,169 193,169" /><polygon points="136,169 135,170 136,169 137,170" /><polygon points="127,169 129,171 131,171 130,171 129,170 128,170" /><polygon points="87,169 89,171 91,171 90,171 89,170 88,170" /><polygon points="46,169 46,171 45,172 45,179 44,180 44,182 44,181 45,180 45,173 47,171 48,171 47,171 46,170" /><polygon points="525,168 527,170 527,172 528,173 528,178 526,180 526,183 533,183 527,183 526,182 526,181 528,179 528,178 529,177 530,177 531,176 532,176 533,175 532,176 531,176 530,177 529,177 528,176 528,172 527,171 527,170" /><polygon points="472,168 472,173 471,174 467,174 471,174 472,175 472,178 471,179 471,181 471,180 472,179 472,174 473,173 475,173 473,173 472,172" /><polygon points="449,168 449,181 448,182 447,182 446,183 443,183 446,183 447,182 457,182 450,182 449,181 449,175 450,174 454,174 450,174 449,173" /><polygon points="410,168 410,171 409,172 407,172 409,172 410,173 410,174 409,175 407,175 406,176 405,175 405,174 405,176 407,176 408,175 409,175 410,176 410,177 409,178 406,178 409,178 410,179 410,184 410,179 411,178 414,178 414,176 415,175 415,171 411,171 410,170" /><polygon points="410,172 411,171 414,171 415,172 415,174 414,175 414,177 413,178 411,178 410,177 410,175 411,174 412,174 411,174 410,173" /><polygon points="389,168 389,174 388,175 388,178 386,180 385,180 384,181 383,181 383,184 385,184 387,182 388,182 390,180 391,181 391,184 391,178 392,177 394,177 392,177 391,176 391,174 392,173 396,173 397,174 397,183 397,168 397,172 396,173 392,173 391,172 391,171 390,171 389,170" /><polygon points="385,180 386,181 386,182 384,184 383,183 383,182" /><polygon points="389,177 390,177 391,178 391,179 388,182 387,182 386,181 386,180" /><polygon points="388,176 389,175 390,175 391,176 390,177 389,177" /><polygon points="389,174 390,173 391,174 390,175" /><polygon points="389,172 390,171 391,172 390,173" /><polygon points="372,168 373,168" /><polygon points="325,168 327,170 327,172 328,173 328,178 326,180 326,183 333,183 327,183 326,182 326,181 328,179 328,178 329,177 330,177 331,176 332,176 333,175 332,176 331,176 330,177 329,177 328,176 328,172 327,171 327,170" /><polygon points="144,168 144,170 145,171 145,172 144,173 141,173 142,173 143,174 143,177 144,178 144,179 143,180 142,179 143,180 142,181 142,183 142,182 143,181 144,182 144,184 144,178 143,177 144,176 145,176 147,174 149,174 150,173 151,174 151,175 149,177 150,176 151,177 151,178 148,181 149,180 150,181 150,182 148,184 149,183 153,183 153,182 154,181 156,183 157,183 156,183 155,182 155,181 154,181 153,180 156,177 156,175 156,176 152,180 151,179 151,174 152,173 153,173 153,171 154,170 154,168 149,168 153,168 154,169 152,171 149,171 152,171 153,172 152,173 150,173 149,174 147,174 145,172 145,171 144,170" /><polygon points="152,180 153,181 153,182 152,183 151,183 150,182" /><polygon points="149,180 150,179 151,180 150,181" /><polygon points="143,175 144,174 145,175 144,176" /><polygon points="144,173 145,172 146,173 146,174 145,175 144,174" /><polygon points="553,167 552,168 549,168 552,168 553,167 555,169 555,183 555,168 554,168" /><polygon points="370,167 370,170 369,171 364,171 364,173 366,175 365,176 364,176 363,177 363,178 363,177 364,176 365,176 366,177 368,177 368,175 367,175 366,174 367,173 369,173 366,173 365,174 364,173 364,172 365,171 369,171 370,170 371,171 371,175 373,177 373,178 375,178 374,178 371,175 372,174 373,174 372,174 371,173 371,171 372,170 373,170 371,170 370,169" /><polygon points="366,176 367,175 368,176 367,177" /><polygon points="353,159 355,159" /><polygon points="293,159 295,159" /><polygon points="583,158 582,159 582,161 585,161 586,160 586,158" /><polygon points="582,159 583,158 585,158 586,159 584,161 583,161 582,160" /><polygon points="430,158 432,158" /><polygon points="423,158 423,161" /><polygon points="425,157 425,159 427,161 428,161 429,162 434,162 434,161 433,160 434,161 433,162 430,162 429,161 428,161 425,158" /><polygon points="385,157 384,158 384,159 384,158" /><polygon points="85,155 85,158 89,158 86,158 85,157" /><polygon points="25,155 25,158 26,159 34,159 27,159 25,157" /><polygon points="212,152 213,152 214,153 214,154 215,155 215,156 215,154 214,153 214,152" /><polygon points="170,152 172,152" /><polygon points="163,152 163,154 162,155 163,154" /><polygon points="444,151 444,152 445,153 444,154 443,154 445,154 445,153 444,152" /><polygon points="382,151 383,151" /><polygon points="351,151 353,151 354,152 353,151" /><polygon points="291,151 293,151 294,152 293,151" /><polygon points="270,151 269,152 268,152 267,153 265,153 268,153 269,152 270,152 271,151 273,151 274,152 274,154 272,156 272,157 271,158 273,156 273,155 274,154 274,151" /><polygon points="165,151 165,154 167,156 168,156 169,157 174,157 174,155 174,156 173,157 170,157 169,156 168,156 165,153" /><polygon points="391,150 391,152 390,153 387,153 390,153 391,154 391,155 390,156 389,156 387,158 388,157 389,157 390,156 391,157 391,160 391,157 392,156 395,159 396,159 397,160 393,156 392,156 391,155 391,153 392,152 395,152 392,152 391,151" /><polygon points="176,149" /><polygon points="533,148 533,152 532,153 532,155 531,156 531,157 527,161 529,159 530,159 531,158 531,157 532,156 532,154 533,153" /><polygon points="489,148 488,149 484,149 489,149 490,148 491,148 492,149 490,151 490,152 489,153 489,156 490,157 491,157 492,158 493,158 494,159 496,159 494,159 493,158 492,158 489,155 489,153 492,150 492,148" /><polygon points="325,148 325,151 324,152 324,154 325,155 328,155 330,153 331,153 332,152 333,152 334,153 334,154 333,155 333,156 331,158 330,158 328,160 329,159 330,159 334,155 334,152 331,152 329,154 328,154 327,155 325,155 324,154 324,152 325,151" /><polygon points="314,148 314,150 315,151 315,152 316,153 316,156 316,153 315,152 315,150 314,149" /><polygon points="234,148 234,150 235,151 235,152 236,153 236,156 236,153 235,152 235,150 234,149" /><polygon points="204,148 204,149 205,150 205,155 206,156 206,158 208,158 209,157 209,156 209,157 208,158 207,158 206,157 206,156 205,155 205,150 204,149" /><polygon points="547,147 549,147 550,148 550,151 549,152 546,152 549,152 550,153 550,156 549,157 545,157 544,158 544,160 547,160 548,159 548,158 549,157 551,157 552,158 553,158 554,159 555,159 554,159 552,157 551,157 550,156 550,147" /><polygon points="546,157 547,157 548,158 546,160 545,160 544,159" /><polygon points="515,147 516,147" /><polygon points="465,147 465,158 466,159 466,160 468,160 469,159 471,159 474,156 473,157 472,157 470,159 469,159 468,160 467,160 465,158" /><polygon points="155,147 156,147" /><polygon points="130,147 129,148 127,148 123,152 123,155 124,156 126,156 129,153 129,152 131,150 131,148 132,147 133,148 134,148 135,149 135,150 136,151 136,154 131,159 133,157 134,157 135,156 135,155 136,154 136,150 134,148 133,148 132,147" /><polygon points="129,148 130,147 131,148 131,149 130,150 130,151 125,156 123,154 123,153 124,152 124,151 126,149 127,149 128,148" /><polygon points="46,147 46,151 45,152 45,154 44,155 44,157 45,157 46,158 46,160 46,156 51,151 52,152 52,157 52,153 53,152 53,149 54,148 54,147 54,148 53,149 52,149 48,153 48,154 47,155 46,155 45,154 45,152 46,151" /><polygon points="44,156 45,155 46,156 45,157" /><polygon points="51,150 52,149 53,150 53,151 52,152 51,151" /><polygon points="528,146 527,147 527,149 526,150 526,152 526,151 527,150 527,147" /><polygon points="508,146 508,149 507,150 505,150 507,150 508,151 508,155 507,156 506,156 505,157 504,157 504,160 506,160 507,159 507,156 508,155 510,155 511,154 514,154 515,155 515,158 513,160 510,160 513,160 515,158 515,154 510,154 509,155 508,154 508,150 509,149 510,149 509,149 508,148" /><polygon points="506,156 507,157 507,159 506,160 505,160 504,159 504,158" /><polygon points="445,146 445,148 444,149 442,149 445,149" /><polygon points="411,146 411,147 407,151 407,152 406,153 408,155 409,155 412,158 412,159 412,157 410,155 409,155 408,154 407,154 406,153 411,148" /><polygon points="383,146 384,147 385,147 384,147" /><polygon points="353,146 354,147" /><polygon points="346,146 346,148 345,149 345,156 344,157 344,159 344,158 345,157 345,150 347,148 348,148 347,148 346,147" /><polygon points="327,146" /><polygon points="307,146 307,149 306,150 304,150 305,150 306,151 306,152 305,153 305,155 304,156 304,159 305,160 306,160 306,159 307,158 307,157 308,156 308,153 309,152 309,150 308,150 307,149" /><polygon points="306,150 307,149 309,151 308,152 308,155 307,156 307,158 305,160 304,159 304,157 305,156 305,154 306,153" /><polygon points="286,146 286,148 285,149 285,156 284,157 284,159 284,158 285,157 285,150 287,148 288,148 287,148 286,147" /><polygon points="235,146 236,147 237,146 236,147" /><polygon points="227,146 227,149 226,150 224,150 225,150 226,151 226,152 225,153 225,155 224,156 224,159 225,160 226,160 226,159 227,158 227,157 228,156 228,153 229,152 229,150 228,150 227,149" /><polygon points="226,150 227,149 229,151 228,152 228,155 227,156 227,158 225,160 224,159 224,157 225,156 225,154 226,153" /><polygon points="188,146 188,148 189,148 190,149 190,150 189,151 186,151 188,151 189,152 189,155 188,156 188,159 187,160 185,160 184,159 184,153 184,160 189,160 190,161 196,161 190,161 189,160 190,159 191,159 192,158 194,158 194,156 190,156 189,155 190,154 193,154 193,151 194,150 196,150 193,150 192,151 191,151 190,150 190,149 191,148 193,148 193,146" /><polygon points="190,157 191,156 193,156 194,157 193,158 191,158" /><polygon points="188,157 189,156 191,158 190,159 189,159 188,158" /><polygon points="189,152 190,151 192,151 193,152 193,153 192,154 190,154 189,153" /><polygon points="191,147 192,146 193,147 192,148" /><polygon points="188,147 189,146 190,147 189,148" /><polygon points="184,146 184,148" /><polygon points="148,146 148,149 147,150 145,150 147,150 148,151 148,155 147,156 146,156 145,157 144,157 144,160 146,160 147,159 147,156 148,155 150,155 151,154 154,154 155,155 155,158 153,160 150,160 153,160 155,158 155,154 150,154 149,155 148,154 148,150 149,149 150,149 149,149 148,148" /><polygon points="146,156 147,157 147,159 146,160 145,160 144,159 144,158" /><polygon points="105,146 105,150 104,151 102,151 104,151 105,152 105,155 104,156 104,157 105,158 105,161 105,157 104,156 105,155" /><polygon points="27,146 29,148 31,148 30,148 29,147 28,147" /><polygon points="573,145 573,148 572,149 571,149 570,150 567,150 566,151 563,151 566,151 567,150 571,150 572,149 573,150 573,154 572,155 571,155 570,154 570,153 568,153 568,157 570,159 570,160 569,161 570,160 570,159 571,158 571,156 572,155 573,155 573,150 574,149 575,149 574,149 573,148" /><polygon points="569,157 570,156 571,157 570,158" /><polygon points="568,154 569,153 570,154 570,156 569,157 568,156" /><polygon points="449,145 449,151 448,152 448,155 446,157 445,157 444,158 443,158 443,161 445,161 447,159 448,159 450,157 451,158 451,161 451,155 452,154 454,154 452,154 451,153 451,151 452,150 456,150 457,151 457,160 457,145 457,149 456,150 452,150 451,149 451,148 450,148 449,147" /><polygon points="445,157 446,158 446,159 444,161 443,160 443,159" /><polygon points="449,154 450,154 451,155 451,156 448,159 447,159 446,158 446,157" /><polygon points="448,153 449,152 450,152 451,153 450,154 449,154" /><polygon points="449,151 450,150 451,151 450,152" /><polygon points="449,149 450,148 451,149 450,150" /><polygon points="432,145 433,145" /><polygon points="393,145 392,146 388,146 388,147 389,148 389,150 389,148 388,147 389,146 391,146 392,147 392,148 394,150 395,150 394,150 393,149 393,148 392,147 392,146 393,145 394,146 395,146 394,146" /><polygon points="365,145 367,147 367,149 368,150 368,155 366,157 366,160 373,160 367,160 366,159 366,158 368,156 368,155 369,154 370,154 371,153 372,153 373,152 372,153 371,153 370,154 369,154 368,153 368,149 367,148 367,147" /><polygon points="355,145 356,146" /><polygon points="249,145 249,147 248,148 247,148 246,149 243,149 246,149 247,148 248,149 248,154 247,155 246,155 244,157 244,159 247,159 248,158 248,157 249,156 250,156 250,154 252,152 253,152 256,155 256,157 254,159 254,160 253,161 255,159 255,158 256,157 256,154 255,153 254,153 252,151 252,150 252,152 251,153 250,153 249,154 248,153 248,149 249,148 251,148 252,147 253,147 251,147 250,148 249,147" /><polygon points="246,156 247,155 248,156 248,157 246,159 245,159 244,158 244,157 245,156" /><polygon points="248,155 249,154 250,155 249,156" /><polygon points="110,145 110,147 109,148 110,147 111,147 112,148 112,149 111,150 109,150 111,150 112,151 112,152 111,153 108,153 111,153 112,154 112,160 111,161 109,159 110,158 110,155 110,158 109,159 108,159 109,159 111,161 112,161 112,158 113,157 114,158 115,158 116,159 117,159 116,159 115,158 114,158 113,157 115,155 116,155 115,155 113,157 112,156 112,153 113,152 115,152 113,152 112,151 113,150 114,150 113,150 112,149 112,148 113,147 116,147 111,147 110,146" /><polygon points="85,145 85,152 85,149 86,148 88,148 86,148 85,147" /><polygon points="70,145 70,148 69,149 66,149 65,150 66,149 68,149 69,150 69,154 67,156 65,154 66,155 66,156 67,156 68,157 68,161 70,161 71,160 72,160 73,159 73,158 74,157 74,153 74,157 70,161 69,161 68,160 68,155 69,154 69,149 70,148" /><polygon points="430,144 430,147 429,148 424,148 424,150 426,152 425,153 424,153 423,154 423,155 423,154 424,153 425,153 426,154 428,154 428,152 427,152 426,151 427,150 429,150 426,150 425,151 424,150 424,149 425,148 429,148 430,147 431,148 431,152 433,154 433,155 435,155 434,155 431,152 432,151 433,151 432,151 431,150 431,148 432,147 433,147 431,147 430,146" /><polygon points="426,153 427,152 428,153 427,154" /><polygon points="90,144 90,151 88,153 88,155 91,155 92,156 92,160 91,161 87,161 92,161 92,155 89,155 88,154 90,152 95,152 91,152 90,151 90,149 91,148 92,148 93,147 94,147 93,147 92,148 91,148 90,147" /><polygon points="163,135 162,136 162,138 165,138 166,137 166,135" /><polygon points="162,136 163,135 165,135 166,136 164,138 163,138 162,137" /><polygon points="127,124 129,124 130,125 130,128 129,129 126,129 129,129 130,130 130,133 129,134 125,134 124,135 124,137 127,137 128,136 128,135 129,134 131,134 132,135 133,135 134,136 135,136 134,136 132,134 131,134 130,133 130,124" /><polygon points="126,134 127,134 128,135 126,137 125,137 124,136" /><polygon points="65,124 65,135 66,136 66,137 68,137 69,136 71,136 74,133 73,134 72,134 70,136 69,136 68,137 67,137 65,135" /><polygon points="15,124 16,124" /><polygon points="115,123 116,124 117,123 116,124" /><polygon points="105,123 105,124 104,125 104,134 104,126 105,125" /><polygon points="27,123 27,124 28,125 25,128 22,128 25,128 26,129 26,131 25,132 24,132 24,133 23,134 23,135 23,134 25,132 26,133 26,138 26,128 28,126 28,125 27,124" /><polygon points="8,123 8,126 7,127 5,127 7,127 8,128 8,132 7,133 6,133 5,134 4,134 4,137 6,137 7,136 7,133 8,132 10,132 11,131 14,131 15,132 15,135 13,137 10,137 13,137 15,135 15,131 10,131 9,132 8,131 8,127 9,126 10,126 9,126 8,125" /><polygon points="6,133 7,134 7,136 6,137 5,137 4,136 4,135" /><polygon points="153,122 153,125 152,126 151,126 150,127 147,127 146,128 143,128 146,128 147,127 151,127 152,126 153,127 153,131 152,132 151,132 150,131 150,130 148,130 148,134 150,136 150,137 149,138 150,137 150,136 151,135 151,133 152,132 153,132 153,127 154,126 155,126 154,126 153,125" /><polygon points="149,134 150,133 151,134 150,135" /><polygon points="148,131 149,130 150,131 150,133 149,134 148,133" /><polygon points="112,122 112,127 111,128 107,128 111,128 112,129 112,132 111,133 111,135 111,134 112,133 112,128 113,127 115,127 113,127 112,126" /><polygon points="89,122 89,135 88,136 87,136 86,137 83,137 86,137 87,136 97,136 90,136 89,135 89,129 90,128 94,128 90,128 89,127" /><polygon points="50,122 50,125 49,126 47,126 49,126 50,127 50,128 49,129 47,129 46,130 45,129 45,128 45,130 47,130 48,129 49,129 50,130 50,131 49,132 46,132 49,132 50,133 50,138 50,133 51,132 54,132 54,130 55,129 55,125 51,125 50,124" /><polygon points="50,126 51,125 54,125 55,126 55,128 54,129 54,131 53,132 51,132 50,131 50,129 51,128 52,128 51,128 50,127" /><polygon points="32,122 32,137 35,137 36,138 35,137 33,137 32,136" /><polygon points="249,114 251,114" /><polygon points="484,113 484,114 485,115 484,114" /><polygon points="353,113 355,113" /><polygon points="333,113 335,113" /><polygon points="104,113 104,114 105,115 104,114" /><polygon points="150,111 150,112 149,113 149,114 148,115 150,113" /><polygon points="153,110 153,115 157,115 157,113 157,114 156,115 154,115 153,114" /><polygon points="25,109 25,112 26,113 34,113 27,113 25,111" /><polygon points="510,106 512,106" /><polygon points="503,106 503,108 502,109 503,108" /><polygon points="312,106 313,106 314,107 314,108 315,109 315,110 315,108 314,107 314,106" /><polygon points="505,105 505,108 507,110 508,110 509,111 514,111 514,109 514,110 513,111 510,111 509,110 508,110 505,107" /><polygon points="452,105 452,109 450,111 448,111 447,112 447,114 450,114 452,112 453,112 452,112 451,111 451,110 452,109" /><polygon points="449,111 450,111 451,112 449,114 448,114 447,113" /><polygon points="351,105 353,105 354,106 353,105" /><polygon points="331,105 333,105 334,106 333,105" /><polygon points="516,103" /><polygon points="553,102 553,106 552,107 552,109 551,110 551,111 547,115 549,113 550,113 551,112 551,111 552,110 552,108 553,107" /><polygon points="473,102 473,106 472,107 472,109 471,110 471,111 467,115 469,113 470,113 471,112 471,111 472,110 472,108 473,107" /><polygon points="453,102 454,103 454,104 455,105 455,106 455,104" /><polygon points="406,102 406,104 405,105 405,106 404,107 404,112 408,112 409,111 409,110 411,108 411,107 413,105 414,106 414,110 414,102 414,104 413,105 412,105 412,106 410,108 410,109 407,112 405,112 404,111 404,108 405,107 405,106 406,105" /><polygon points="304,102 304,103 305,104 305,109 306,110 306,112 308,112 309,111 309,110 309,111 308,112 307,112 306,111 306,110 305,109 305,104 304,103" /><polygon points="289,102 288,103 284,103 289,103 290,102 291,102 292,103 290,105 290,106 289,107 289,110 290,111 291,111 292,112 293,112 294,113 296,113 294,113 293,112 292,112 289,109 289,107 292,104 292,102" /><polygon points="84,102 84,113" /><polygon points="530,101 530,105 531,106 531,109 530,110 529,110 528,111 525,111 525,113 527,113 530,110 531,111 533,111 534,112 535,112 534,112 533,111 531,111 530,110 531,109 531,106 532,105 533,105 531,105 530,104" /><polygon points="525,112 526,111 527,111 528,112 527,113 526,113" /><polygon points="447,101 447,102 446,103 445,103 446,103 447,104 447,106 447,102 448,101 450,101" /><polygon points="272,101 272,105 271,106 270,106 269,107 268,107 267,108 266,108 265,107 265,104 265,113 266,114 274,114 267,114 265,112 265,109 266,108 268,108 269,107 270,107 271,106 272,107 272,108 271,109 272,108 272,106 273,105 275,105 276,104 275,105 273,105 272,104" /><polygon points="175,101 176,101" /><polygon points="123,101 127,101 128,102 128,103 126,105 125,105 124,104 124,103 124,104 125,105 124,106 122,106 125,106 126,107 126,109 125,110 125,111 126,112 126,114 126,112 127,111 128,112 130,112 131,111 131,106 132,105 134,105 135,106 135,115 135,105 136,104 137,104 135,104 134,105 131,105 127,101" /><polygon points="126,106 127,105 130,105 131,106 131,111 130,112 129,112 128,111 126,111 125,110 127,108 129,108 127,108 126,107" /><polygon points="127,104 128,103 129,103 130,104 129,105 128,105" /><polygon points="50,101 49,102 47,102 43,106 43,109 44,110 46,110 49,107 49,106 51,104 51,102 52,101 53,102 54,102 55,103 55,104 56,105 56,108 51,113 53,111 54,111 55,110 55,109 56,108 56,104 54,102 53,102 52,101" /><polygon points="49,102 50,101 51,102 51,103 50,104 50,105 45,110 43,108 43,107 44,106 44,105 46,103 47,103 48,102" /><polygon points="548,100 547,101 547,103 546,104 546,106 546,105 547,104 547,101" /><polygon points="468,100 467,101 467,103 466,104 466,106 466,105 467,104 467,101" /><polygon points="384,100 384,102" /><polygon points="371,100 371,101 367,105 367,106 366,107 368,109 369,109 372,112 372,113 372,111 370,109 369,109 368,108 367,108 366,107 371,102" /><polygon points="353,100 354,101" /><polygon points="346,100 346,102 345,103 345,110 344,111 344,113 344,112 345,111 345,104 347,102 348,102 347,102 346,101" /><polygon points="326,100 326,102 325,103 325,110 324,111 324,113 324,112 325,111 325,104 327,102 328,102 327,102 326,101" /><polygon points="214,100 214,116" /><polygon points="206,100 205,101 206,100 208,100 209,101 206,104 205,104 204,105 204,107 207,107 208,108 207,109 207,111 206,112 206,114 206,113 207,112 207,110 208,109 208,107 205,107 204,106 206,104 207,104 209,102 209,100" /><polygon points="191,100 194,100 195,101 195,104 194,105 194,107 193,108 192,108 190,106 191,107 191,108 192,109 192,110 191,111 191,112 189,114 192,111 194,111 193,111 192,110 192,109 193,108 194,108 194,106 195,105 195,100" /><polygon points="183,100 183,109 186,109 187,110 187,115 187,100" /><polygon points="183,107 184,106 186,106 187,107 187,108 186,109 184,109 183,108" /><polygon points="185,104 186,103 187,104 186,105" /><polygon points="183,104 184,103 186,105 185,106 184,106 183,105" /><polygon points="183,101 184,100 186,100 187,101 187,102 186,103 184,103 183,102" /><polygon points="168,100 168,103 167,104 165,104 167,104 168,105 168,109 167,110 166,110 165,111 164,111 164,114 166,114 167,113 167,110 168,109 170,109 171,108 174,108 175,109 175,112 173,114 170,114 173,114 175,112 175,108 170,108 169,109 168,108 168,104 169,103 170,103 169,103 168,102" /><polygon points="166,110 167,111 167,113 166,114 165,114 164,113 164,112" /><polygon points="146,100 146,103 145,104 145,108 144,109 144,111 143,112 143,113 142,114 143,113 143,112 144,111 144,110 145,109 145,107 146,106 147,106 146,106 145,105 145,104 146,103 148,103 147,103 146,102" /><polygon points="93,100 92,101 92,103 91,104 89,104 91,104 92,105 92,110 91,111 90,110 87,110 87,113 90,113 90,112 91,111 92,111 92,105 93,104 95,104 93,104 92,103 92,101" /><polygon points="87,111 88,110 89,110 90,111 90,112 89,113 88,113 87,112" /><polygon points="69,100 68,101 66,101 65,102 65,108 64,109 64,110 63,111 63,113 63,112 64,111 64,109 65,108 65,105 66,104 67,104 69,106 70,106 71,107 70,108 67,108 71,108 72,109 71,110 71,111 70,112 69,112 67,114 66,114 68,114 70,112 71,113 72,113 74,115 76,115 75,115 74,114 73,114 71,112 71,110 72,109 72,108 71,107 72,106 72,104 73,103 75,103 73,103 72,102 72,101 73,100 74,100" /><polygon points="68,104 69,103 71,103 72,104 72,105 71,106 69,106 68,105" /><polygon points="65,102 66,101 67,101 68,102 68,103 67,104 66,104 65,103" /><polygon points="70,100 71,100 72,101 72,102 71,103 69,103 68,102" /><polygon points="27,100 29,102 31,102 30,102 29,101 28,101" /><polygon points="425,99 427,101 427,103 428,104 428,109 426,111 426,114 433,114 427,114 426,113 426,112 428,110 428,109 429,108 430,108 431,107 432,107 433,106 432,107 431,107 430,108 429,108 428,107 428,103 427,102 427,101" /><polygon points="417,99 416,100 415,100 416,100 417,99 418,99" /><polygon points="390,99 389,100 387,100 387,101 386,102 387,101 388,102 390,102 391,103 391,105 390,106 389,106 388,105 389,106 390,106 391,107 391,109 389,111 386,111 389,111 390,110 391,111 391,113 390,114 385,114 384,113 384,107 384,114 390,114 391,115 396,115 391,115 390,114 391,113 391,111 392,110 396,110 392,110 391,109 392,108 393,108 394,107 394,104 392,104 391,103 392,102 393,102 394,101 395,101 395,99" /><polygon points="391,107 392,106 393,107 392,108" /><polygon points="391,105 392,104 393,104 394,105 394,106 393,107" /><polygon points="387,101 388,100 390,100 391,101 390,102 388,102" /><polygon points="390,100 391,99 394,99 395,100 393,102 392,102" /><polygon points="355,99 356,100" /><polygon points="250,99 250,100 249,101 249,103 248,104 245,104 250,104 251,105 251,106 252,107 254,107 252,107 251,106 251,105 250,104 251,103 253,103 250,103 249,102 250,101" /><polygon points="230,99 228,101 227,101 227,104 226,105 225,105 227,105 229,107 229,108 227,110 225,110 225,112 224,113 225,114 225,115 232,115 226,115 224,113 225,112 225,111 226,110 228,110 228,109 229,108 232,108 233,107 234,107 232,107 231,108 230,108 229,107 229,106 227,104 227,102 228,101 229,101 229,100" /><polygon points="153,99 155,99 156,100 156,101 157,102 157,103 156,104 156,105 155,106 154,106 153,107 152,107 151,106 151,105 152,104 154,104 153,104 152,103 153,102 154,102 152,102 152,103 151,104 151,107 154,107 155,106 156,106 156,104 157,103 157,101 156,100 156,99" /><polygon points="134,98 134,99 133,100 133,101 132,102 134,100" /><polygon points="343,89 342,90 342,92 345,92 346,91 346,89" /><polygon points="342,90 343,89 345,89 346,90 344,92 343,92 342,91" /><polygon points="93,88 93,89" /><polygon points="205,86 205,89 206,90 214,90 207,90 205,88" /><polygon points="145,86 145,89 146,90 154,90 147,90 145,88" /><polygon points="268,82 270,82 271,83 271,86 270,87 267,87 271,87 272,88 272,89 271,90 271,91 270,92 269,91 270,92 271,92 271,91 272,90 272,87 273,86 276,86 272,86 271,85 271,82" /><polygon points="90,81 95,81" /><polygon points="74,79 74,81 75,82 75,83 76,84 76,87 76,84 75,83 75,81 74,80" /><polygon points="307,78 309,78 310,79 310,82 309,83 306,83 309,83 310,84 310,87 309,88 305,88 304,89 304,91 307,91 308,90 308,89 309,88 311,88 312,89 313,89 314,90 315,90 314,90 312,88 311,88 310,87 310,78" /><polygon points="306,88 307,88 308,89 306,91 305,91 304,90" /><polygon points="285,78 285,89 286,90 286,91 288,91 289,90 291,90 294,87 293,88 292,88 290,90 289,90 288,91 287,91 285,89" /><polygon points="190,78 189,79 187,79 183,83 183,86 184,87 186,87 189,84 189,83 191,81 191,79 192,78 193,79 194,79 195,80 195,81 196,82 196,85 191,90 193,88 194,88 195,87 195,86 196,85 196,81 194,79 193,79 192,78" /><polygon points="189,79 190,78 191,79 191,80 190,81 190,82 185,87 183,85 183,84 184,83 184,82 186,80 187,80 188,79" /><polygon points="165,78 165,89 166,90 166,91 168,91 169,90 171,90 174,87 173,88 172,88 170,90 169,90 168,91 167,91 165,89" /><polygon points="115,78 116,78" /><polygon points="85,78 85,79 84,80 84,88 84,81 85,80" /><polygon points="45,78 45,82 46,83 44,85 44,86 44,85 45,84 46,84 47,85 47,87 49,89 49,90 49,89 48,88 48,87 47,86 47,85 46,84 46,83 47,82 48,82 49,81 50,81 50,80 51,79 54,79 55,80 55,83 54,84 53,84 52,85 51,85 53,85 55,83 55,79 50,79 50,80 49,81 48,81 47,82 46,82 45,81" /><polygon points="15,78 16,78" /><polygon points="292,77 291,78 292,77 293,77" /><polygon points="207,77 209,79 211,79 210,79 209,78 208,78" /><polygon points="156,77 155,78 156,77 157,78" /><polygon points="147,77 149,79 151,79 150,79 149,78 148,78" /><polygon points="108,77 108,80 107,81 105,81 107,81 108,82 108,86 107,87 106,87 105,88 104,88 104,91 106,91 107,90 107,87 108,86 110,86 111,85 114,85 115,86 115,89 113,91 110,91 113,91 115,89 115,85 110,85 109,86 108,85 108,81 109,80 110,80 109,80 108,79" /><polygon points="106,87 107,88 107,90 106,91 105,91 104,90 104,89" /><polygon points="67,77 67,80 66,81 64,81 65,81 66,82 66,83 65,84 65,86 64,87 64,90 65,91 66,91 66,90 67,89 67,88 68,87 68,84 69,83 69,81 68,81 67,80" /><polygon points="66,81 67,80 69,82 68,83 68,86 67,87 67,89 65,91 64,90 64,88 65,87 65,85 66,84" /><polygon points="25,77 25,79 24,80 24,82 21,85 23,83 24,84 24,92 24,81 26,79 27,79 28,80 27,81 27,84 28,85 28,88 27,89 27,91 27,90 28,89 29,90 31,90 32,91 33,91 34,92 37,92 35,92 34,91 33,91 32,90 32,88 33,87 36,87 34,87 33,86 34,85 35,85 35,81 36,80 38,80 37,80 36,79 36,78 35,78 34,77 33,77 32,78 30,78 32,78 33,79 32,80 29,80 28,79 26,79 25,78" /><polygon points="33,84 34,83 35,84 34,85" /><polygon points="33,81 34,80 35,81 34,82" /><polygon points="29,80 32,80 33,81 33,82 32,83 30,83 31,83 32,84 31,85 30,85 31,85 32,86 31,87 30,87 31,87 32,88 32,89 31,90 29,90 28,89 28,84 27,83 27,82" /><polygon points="33,78 34,77 36,79 35,80 34,80 33,79" /><polygon points="8,77 8,80 7,81 5,81 7,81 8,82 8,86 7,87 6,87 5,88 4,88 4,91 6,91 7,90 7,87 8,86 10,86 11,85 14,85 15,86 15,89 13,91 10,91 13,91 15,89 15,85 10,85 9,86 8,85 8,81 9,80 10,80 9,80 8,79" /><polygon points="6,87 7,88 7,90 6,91 5,91 4,90 4,89" /><polygon points="333,76 333,79 332,80 331,80 330,81 327,81 326,82 323,82 326,82 327,81 331,81 332,80 333,81 333,85 332,86 331,86 330,85 330,84 328,84 328,88 330,90 330,91 329,92 330,91 330,90 331,89 331,87 332,86 333,86 333,81 334,80 335,80 334,80 333,79" /><polygon points="329,88 330,87 331,88 330,89" /><polygon points="328,85 329,84 330,85 330,87 329,88 328,87" /><polygon points="267,76 267,78 266,79 264,79 265,79 266,80 266,82 265,83 265,86 263,88 263,89 262,90 263,89 263,88 264,87 265,88 265,92 265,84 266,83 266,80 268,78 272,78 268,78 267,77" /><polygon points="245,76 247,78 247,80 248,81 248,86 246,88 246,91 253,91 247,91 246,90 246,89 248,87 248,86 249,85 250,85 251,84 252,84 253,83 252,84 251,84 250,85 249,85 248,84 248,80 247,79 247,78" /><polygon points="225,76 227,78 227,80 228,81 228,86 226,88 226,91 233,91 227,91 226,90 226,89 228,87 228,86 229,85 230,85 231,84 232,84 233,83 232,84 231,84 230,85 229,85 228,84 228,80 227,79 227,78" /><polygon points="131,76 130,77 128,77 128,83 127,84 124,84 124,91 128,91 129,92 135,92 135,82 133,80 133,76" /><polygon points="129,86 130,85 131,85 132,86 131,87 130,87" /><polygon points="124,85 125,84 127,86 127,90 126,91 125,91 124,90" /><polygon points="128,84 129,83 130,83 131,84 130,85 129,85" /><polygon points="133,82 134,81 135,82 135,91 134,92 130,92 129,91 128,91 127,90 127,86 126,85 127,84 128,84 129,85 129,87 132,87 132,85 131,84 131,83 132,82" /><polygon points="130,80 131,79 132,79 133,80 133,81 132,82 131,82 130,81" /><polygon points="131,77 132,76 133,77 133,78 132,79 131,79 130,80 130,82 129,83 128,82 128,78 129,77" /><polygon points="123,76 123,78" /><polygon points="34,69" /><polygon points="26,68 26,69" /><polygon points="353,67 355,67" /><polygon points="143,67 143,68" /><polygon points="363,66 362,67 362,69 365,69 366,68 366,66" /><polygon points="362,67 363,66 365,66 366,67 364,69 363,69 362,68" /><polygon points="253,65 253,66" /><polygon points="68,63 70,63 71,64 71,69 71,63" /><polygon points="192,60 193,60 194,61 194,62 195,63 195,64 195,62 194,61 194,60" /><polygon points="130,60 132,60" /><polygon points="123,60 123,62 122,63 123,62" /><polygon points="351,59 353,59 354,60 353,59" /><polygon points="272,59 272,63 270,65 268,65 267,66 267,68 270,68 272,66 273,66 272,66 271,65 271,64 272,63" /><polygon points="269,65 270,65 271,66 269,68 268,68 267,67" /><polygon points="125,59 125,62 127,64 128,64 129,65 134,65 134,63 134,64 133,65 130,65 129,64 128,64 125,61" /><polygon points="250,58 255,58" /><polygon points="145,57 145,61 144,62 142,62 144,62 145,63 145,64" /><polygon points="136,57" /><polygon points="293,56 293,60 292,61 292,63 291,64 291,65 287,69 289,67 290,67 291,66 291,65 292,64 292,62 293,61" /><polygon points="273,56 274,57 274,58 275,59 275,60 275,58" /><polygon points="184,56 184,57 185,58 185,63 186,64 186,66 188,66 189,65 189,64 189,65 188,66 187,66 186,65 186,64 185,63 185,58 184,57" /><polygon points="325,55 325,66 326,67 326,68 328,68 329,67 331,67 334,64 333,65 332,65 330,67 329,67 328,68 327,68 325,66" /><polygon points="307,55 309,55 310,56 310,59 309,60 306,60 309,60 310,61 310,64 309,65 305,65 304,66 304,68 307,68 308,67 308,66 309,65 311,65 312,66 313,66 314,67 315,67 314,67 312,65 311,65 310,64 310,55" /><polygon points="306,65 307,65 308,66 306,68 305,68 304,67" /><polygon points="267,55 267,56 266,57 265,57 266,57 267,58 267,60 267,56 268,55 270,55" /><polygon points="245,55 245,56 244,57 244,65 244,58 245,57" /><polygon points="110,55 109,56 107,56 103,60 103,63 104,64 106,64 109,61 109,60 111,58 111,56 112,55 113,56 114,56 115,57 115,58 116,59 116,62 111,67 113,65 114,65 115,64 115,63 116,62 116,58 114,56 113,56 112,55" /><polygon points="109,56 110,55 111,56 111,57 110,58 110,59 105,64 103,62 103,61 104,60 104,59 106,57 107,57 108,56" /><polygon points="346,54 346,56 345,57 345,64 344,65 344,67 344,66 345,65 345,58 347,56 348,56 347,56 346,55" /><polygon points="288,54 287,55 287,57 286,58 286,60 286,59 287,58 287,55" /><polygon points="225,54 226,54 227,55 227,56 228,57 227,58 226,58 225,59 224,59 224,61 225,62 225,65 224,66 224,67 226,67 227,66 228,67 228,68 228,66 227,66 226,67 225,67 224,66 225,65 225,64 226,63 228,63 228,59 229,58 230,59 230,60 231,61 231,69 231,64 232,63 234,63 234,57 231,57 230,58 229,58 227,56 227,54" /><polygon points="225,62 226,61 227,61 228,62 227,63 226,63" /><polygon points="226,59 227,58 228,59 228,60 227,61 225,61 224,60 225,59" /><polygon points="232,57 233,57 234,58 234,62 233,63 232,63 231,62 231,61 230,60 230,59" /><polygon points="153,54 153,59 151,61 150,61 149,62 149,64 150,65 150,67 151,67 152,68 157,68 153,68 152,67 151,67 150,66 150,65 149,64 149,62 150,61 151,61 152,60 153,61 153,62 153,60 154,59 155,60 156,60 156,58 158,56 156,58 154,58 153,57" /><polygon points="154,59 155,58 156,59 155,60" /><polygon points="14,54 14,55 13,56 14,55" /><polygon points="11,54 11,59 12,60 11,61 9,61 7,63 7,66 6,67 6,68 5,69 7,67 11,67 8,67 7,66 7,64 8,63 9,64 12,64 13,65 13,69 13,61 12,60 13,59 16,59 12,59 11,58" /><polygon points="10,61 12,61 13,62 13,63 12,64 9,64 8,63" /><polygon points="233,53 232,54 230,54 233,54 234,53 235,53" /><polygon points="209,53 207,55 208,56 207,57 205,57 204,58 202,58 205,58 206,59 204,61 203,61 204,61 205,60 206,60 207,61 209,61 210,62 210,64 209,65 208,65 207,66 205,66 207,66 208,65 209,65 210,66 210,69 210,66 211,65 216,65 211,65 210,64 210,61 209,60 209,58 210,57 211,57 214,60 216,60 215,60 212,57 214,55 215,55 214,55 213,56 212,56 211,57 210,57 209,56 209,55 208,54 209,53 210,53" /><polygon points="207,58 208,57 209,58 209,60 208,61 207,61 206,60 207,59" /><polygon points="205,58 206,57 207,58 206,59" /><polygon points="207,55 208,54 209,55 208,56" /><polygon points="169,53 169,54 170,55 169,56 168,56 167,57 167,59 168,60 168,63 167,64 167,68 168,68 171,65 175,69 176,69 175,69 173,67 173,66 172,65 172,64 173,63 174,63 173,63 171,65 169,63 171,61 172,61 172,55 170,55 169,54" /><polygon points="167,64 168,63 169,63 170,64 170,65 169,66 169,67 168,68 167,67" /><polygon points="168,61 169,60 170,61 169,62" /><polygon points="171,58 172,59 172,60 171,61 170,61 169,60" /><polygon points="170,55 171,55 172,56 172,57 170,59 169,59 168,60 167,59 167,58" /><polygon points="89,53 88,54 86,54 85,55 84,55 84,63 83,64 83,66 82,67 82,68 81,69 83,67 83,65 84,64 84,56 85,55 86,55 87,54 89,54 90,53 92,53 93,54 93,59 92,60 90,60 89,59 89,57 91,55 88,58 86,58 88,58 89,59 88,60 87,60 86,61 86,63 88,63 89,64 89,66 88,67 85,67 88,67 89,66 92,66 93,67 93,68 93,67 94,66 95,67 95,68 97,68 96,68 95,67 95,66 94,65 94,62 93,61 93,53" /><polygon points="91,61 92,60 93,61 93,62 94,63 94,65 93,66 90,66 89,65 89,63 90,62 91,62" /><polygon points="89,61 90,60 91,61 90,62" /><polygon points="86,61 87,60 88,60 89,61 89,62 88,63 87,63 86,62" /><polygon points="8,53 8,54 7,55 5,55 7,55 8,56 8,58 6,60 5,60 6,60 7,59 8,59" /><polygon points="69,52 69,54 68,55 65,55 67,55 68,56 67,57 67,59 65,61 63,61 64,61 65,62 62,65 63,64 64,64 65,63 66,64 66,65 67,66 67,69 67,67 68,66 69,66 67,66 66,65 66,64 65,63 65,62 67,60 70,60 71,59 72,60 72,61 75,64 76,64 77,65 76,64 75,64 72,61 72,60 73,59 75,59 71,59 70,60 68,60 67,59 67,58 68,57 72,57 69,57 68,56 68,55 69,54 72,54 70,54 69,53" /><polygon points="28,52 27,53 26,53 26,57 28,57 29,58 27,60 24,60 28,60 29,61 28,62 27,62 27,65 28,65 29,66 29,69 29,65 30,64 32,64 32,63 33,62 33,61 29,61 28,60 29,59 34,59 30,59 29,58 29,57 30,56 32,56 32,52" /><polygon points="29,62 30,61 32,61 33,62 31,64 30,64 29,65 28,65 27,64 27,63 28,62" /><polygon points="26,56 27,55 28,56 27,57" /><polygon points="26,54 27,53 28,54 27,55" /><polygon points="28,53 29,52 31,52 32,53 32,55 31,56 29,56 28,55 29,54 30,54 29,54" /></svg>