<?xml version="1.0" encoding="utf-8" ?>
<svg baseProfile="full" height="100%" version="1.1" width="100%" xmlns="http://www.w3.org/2000/svg" xmlns:ev="http://www.w3.org/2001/xml-events" xmlns:xlink="http://www.w3.org/1999/xlink"><defs /><polygon points="267,188 267,191 266,192 266,194 266,192 267,191" /><polygon points="363,186 366,186 369,189 369,193 370,193 371,194 372,194 373,195 378,195 379,196 383,196 384,195 387,198 386,199 386,203 386,199 387,198 385,196 385,195 384,195 383,196 379,196 378,195 373,195 372,194 371,194 369,192 369,190 373,186 380,186 373,186 372,187 371,187 369,189 366,186" /><polygon points="274,186 284,186 286,188 286,195 285,196 278,196 286,196 286,188 284,186" /><polygon points="364,178 367,178 368,179 377,179 378,178 379,178 378,178 377,179 368,179 367,178" /><polygon points="273,178 272,179 270,179 269,180 270,179 272,179 273,178 276,178 277,179 280,179 277,179 276,178" /><polygon points="320,175 329,175" /><polygon points="336,174 336,177 337,178 337,180 336,181 320,181 319,182 319,185 320,186 322,186 323,187 328,187 330,185 330,182 331,181 337,181 339,183 339,185 340,186 340,189 341,190 341,192 342,193 341,192 341,190 340,189 340,186 339,185 339,183 338,182 338,181 337,180 337,178 336,177" /><polygon points="321,181 329,181 330,182 330,185 328,187 323,187 322,186 320,186 319,185 319,183" /><polygon points="409,173 408,174 405,174 404,175 405,174 408,174 409,173 412,173 413,174 413,176 411,178 411,180 410,181 409,181 412,181 414,183 413,184 413,196 413,184 414,183 415,183 416,184 417,184 418,185 417,184 416,184 415,183 414,183 411,180 411,179 412,178 412,177 413,176 413,173" /><polygon points="432,169 432,172 433,173 433,181 432,182 428,182 427,181 426,181 425,180 426,181 427,181 428,182 432,182 433,183 433,186 432,187 432,193 430,195 424,195 430,195 431,196 437,196 438,197 445,197 446,198 448,198 446,198 445,197 438,197 437,196 432,196 431,195 431,194 432,193 432,187 433,186 433,183 434,182 437,182 438,181 440,181 438,181 437,182 434,182 433,181 433,173 432,172" /><polygon points="280,169 282,169 283,170 284,170 285,171 286,171 287,172 289,172 290,173 293,173 294,174 296,174 294,174 293,173 290,173 289,172 287,172 286,171 285,171 284,170 283,170 282,169" /><polygon points="317,168 315,170 315,171 314,172 314,173 313,174 313,175 312,176 312,178 311,179 311,180 310,181 310,183 309,184 309,186 308,187 308,188 307,189 307,190 307,189 308,188 308,187 309,186 309,184 310,183 310,182 311,181 311,180 312,179 312,177 313,176 313,174 314,173 314,172 315,171 315,170 317,168 336,168" /><polygon points="271,164 270,165 269,165 268,166 267,166 266,167 264,167 262,169 261,169 260,170 259,170 258,171 257,171 255,173 253,173 255,173 257,171 258,171 259,170 261,170 263,168 264,168 265,167 266,167 267,166 268,166 269,165 270,165 271,164 272,164" /><polygon points="412,162 412,164 413,165 413,167 414,168 415,168 414,168 413,167 413,165 412,164" /><polygon points="371,162 370,163 369,163 364,168 363,168 354,177 353,177 354,177 355,176 356,176 369,163 370,163 371,162 375,162 378,165 379,165 385,171 386,171 389,174 390,174 392,176 389,173 388,173 384,169 383,169 377,163 376,163 375,162" /><polygon points="315,140 315,143 317,145 318,145 319,146 328,146 329,145 332,145 333,144 334,144 335,143 336,143 337,142 338,142 339,141 338,142 337,142 336,143 335,143 334,144 333,144 332,145 329,145 328,146 319,146 318,145 317,145 315,143" /><polygon points="262,120 262,125 261,126 261,128 260,129 256,129 259,129 260,130 260,135 257,138 258,137 259,137 260,136 262,138 260,136 260,135 261,134 263,134 264,133 266,133 268,131 269,131 270,130 271,130 272,129 273,129 274,128 276,128 277,127 278,127 279,126 280,126 281,125 285,125 286,126 286,127 287,128 287,131 288,132 288,134 287,135 285,135 284,136 283,136 282,137 282,139 281,140 282,141 282,142 283,143 287,143 289,141 289,135 288,134 288,133 291,130 296,130 290,130 288,132 287,131 287,128 286,127 286,126 285,125 280,125 279,126 278,126 277,127 276,127 275,128 274,128 273,129 272,129 271,130 270,130 269,131 268,131 267,132 266,132 265,133 264,133 263,134 261,134 260,133 260,130 261,129 261,126 262,125" /><polygon points="285,135 288,135 289,136 289,141 287,143 283,143 282,142 282,141 281,140 282,139 282,138" /><polygon points="316,117 318,119 319,119 320,120 327,120 328,121 328,122 327,123 327,124 326,125 327,124 327,123 328,122 328,121 329,120 330,120 331,119 332,119 333,118 332,119 330,119 329,120 320,120 319,119 318,119" /><polygon points="0,0 0,280 499,280 499,0" /><polygon points="317,72 318,72 321,75 321,76 322,77 322,78 323,79 323,80 324,81 324,82 325,83 325,85 326,86 326,88 327,89 327,91 328,92 328,93 329,94 329,100 328,101 328,104 330,106 330,107 331,108 331,109 332,110 332,111 333,112 333,115 334,116 334,118 335,119 335,120 336,121 336,123 337,124 337,127 336,128 335,128 334,129 332,129 331,130 328,130 327,131 326,131 325,132 333,132 334,131 336,131 337,130 339,132 339,142 338,143 326,143 325,144 329,144 330,145 338,145 339,146 339,153 338,154 338,157 337,158 337,160 336,161 335,161 334,160 327,160 328,160 329,161 331,161 332,162 333,162 335,164 335,165 334,166 334,167 333,168 333,169 331,171 331,172 328,175 328,176 326,178 326,179 318,187 317,187 315,189 314,189 312,191 311,191 310,192 309,192 308,193 307,193 306,194 305,194 304,195 303,195 302,196 301,196 300,197 298,197 297,198 295,198 294,199 292,199 291,200 289,200 288,201 286,201 285,202 283,202 282,203 281,203 280,204 278,204 277,205 275,205 274,206 270,206 269,207 262,207 261,208 223,208 222,207 215,207 214,206 209,206 208,205 205,205 204,204 201,204 200,203 199,203 198,202 197,202 196,201 195,201 194,200 193,200 191,198 190,198 187,195 186,195 180,189 180,188 175,183 175,182 172,179 172,178 170,176 170,175 169,174 169,173 168,172 168,171 167,170 167,167 168,166 169,166 170,165 171,165 172,164 173,164 174,163 177,163 178,162 179,162 178,161 173,161 172,162 171,162 170,163 168,163 167,164 166,164 164,162 164,154 163,153 163,152 165,150 170,150 171,149 172,149 172,148 171,148 170,147 167,147 166,148 164,148 163,147 164,146 164,137 165,136 166,137 178,137 176,135 172,135 171,134 166,134 165,133 165,130 166,129 166,126 167,125 167,123 168,122 168,120 169,119 169,118 170,117 170,116 171,115 171,114 172,113 172,112 173,111 173,110 174,109 174,108 176,106 176,105 177,104 177,97 178,96 178,91 179,90 179,86 180,85 180,83 181,82 181,79 182,78 182,76 183,75 184,75 189,80 189,81 193,85 193,86 195,88 196,88 201,93 205,93 206,92 213,92 214,91 261,91 262,90 303,90 304,89 305,89 306,88 306,87 308,85 308,84 311,81 311,80 313,78 313,77 315,75 315,74" /><polygon points="250,138 248,140 248,141 249,142 248,143 248,145 247,146 246,146 245,147 240,147 238,145 238,144 237,143 235,143 235,145 236,146 236,147 238,149 248,149 251,146 252,146 253,147 261,147 261,146 262,145 262,144 261,143 260,143 258,145 255,145 254,144 254,143 255,142 255,140 254,139 253,139 252,138" /><polygon points="211,122 210,123 209,123 208,124 208,130 210,132 211,132 212,133 218,133 219,132 220,132 221,131 221,130 222,129 222,125 221,124 221,123 219,123 218,122 217,123 216,122" /><polygon points="285,120 284,121 282,121 281,122 280,122 280,127 283,130 284,130 285,131 286,131 287,130 288,130 289,129 291,129 292,128 292,123 290,121 288,121 287,120" /></svg>