<?xml version="1.0" encoding="utf-8" ?>
<svg baseProfile="full" height="100%" version="1.1" width="100%" xmlns="http://www.w3.org/2000/svg" xmlns:ev="http://www.w3.org/2001/xml-events" xmlns:xlink="http://www.w3.org/1999/xlink"><defs /><polygon points="0,0 0,280 499,280 499,0" /><polygon points="317,72 318,72 321,75 321,76 322,77 322,78 323,79 323,80 324,81 324,82 325,83 325,85 326,86 326,88 327,89 327,91 328,92 328,93 329,94 329,100 328,101 328,104 330,106 330,107 331,108 331,109 332,110 332,111 333,112 333,115 334,116 334,118 335,119 335,120 336,121 336,123 337,124 337,127 336,128 335,128 334,129 332,129 331,130 328,130 327,131 326,131 325,132 333,132 334,131 336,131 337,130 339,132 339,142 338,143 326,143 325,144 329,144 330,145 338,145 339,146 339,153 338,154 338,157 337,158 337,160 336,161 335,161 334,160 327,160 328,160 329,161 331,161 332,162 333,162 335,164 335,165 334,166 334,167 333,168 333,169 331,171 331,172 328,175 328,176 326,178 326,179 318,187 317,187 315,189 314,189 312,191 311,191 310,192 309,192 308,193 307,193 306,194 305,194 304,195 303,195 302,196 301,196 300,197 298,197 297,198 295,198 294,199 292,199 291,200 289,200 288,201 286,201 285,202 283,202 282,203 281,203 280,204 278,204 277,205 275,205 274,206 270,206 269,207 262,207 261,208 223,208 222,207 215,207 214,206 209,206 208,205 205,205 204,204 201,204 200,203 199,203 198,202 197,202 196,201 195,201 194,200 193,200 191,198 190,198 187,195 186,195 180,189 180,188 175,183 175,182 172,179 172,178 170,176 170,175 169,174 169,173 168,172 168,171 167,170 167,167 168,166 169,166 170,165 171,165 172,164 173,164 174,163 177,163 178,162 179,162 178,161 173,161 172,162 171,162 170,163 168,163 167,164 166,164 164,162 164,154 163,153 163,152 165,150 170,150 171,149 172,149 172,148 171,148 170,147 167,147 166,148 164,148 163,147 164,146 164,137 165,136 166,137 178,137 176,135 172,135 171,134 166,134 165,133 165,130 166,129 166,126 167,125 167,123 168,122 168,120 169,119 169,118 170,117 170,116 171,115 171,114 172,113 172,112 173,111 173,110 174,109 174,108 176,106 176,105 177,104 177,97 178,96 178,91 179,90 179,86 180,85 180,83 181,82 181,79 182,78 182,76 183,75 184,75 189,80 189,81 193,85 193,86 195,88 196,88 201,93 205,93 206,92 213,92 214,91 261,91 262,90 303,90 304,89 305,89 306,88 306,87 308,85 308,84 311,81 311,80 313,78 313,77 315,75 315,74" /><polygon points="250,138 248,140 248,141 249,142 248,143 248,145 247,146 246,146 245,147 240,147 238,145 238,144 237,143 235,143 235,145 236,146 236,147 238,149 248,149 251,146 252,146 253,147 261,147 261,146 262,145 262,144 261,143 260,143 258,145 255,145 254,144 254,143 255,142 255,140 254,139 253,139 252,138" /><polygon points="211,122 210,123 209,123 208,124 208,130 210,132 211,132 212,133 218,133 219,132 220,132 221,131 221,130 222,129 222,125 221,124 221,123 219,123 218,122 217,123 216,122" /><polygon points="285,120 284,121 282,121 281,122 280,122 280,127 283,130 284,130 285,131 286,131 287,130 288,130 289,129 291,129 292,128 292,123 290,121 288,121 287,120" /></svg>