<?xml version="1.0" ?>
<svg xmlns="http://www.w3.org/2000/svg" xmlns:ev="http://www.w3.org/2001/xml-events" xmlns:xlink="http://www.w3.org/1999/xlink" baseProfile="full" height="572px" version="1.1" width="600px" x="0px" y="0px">
	<defs/>
	<path d="M 111.153981,116.81940399999999 C 112.623981,116.519404 114.033981,115.879404 114.673981,114.769404 C 114.223981,118.089404 113.77398099999999,121.409404 113.323981,124.729404 C 112.963981,123.619404 112.603981,122.509404 112.233981,121.409404 C 113.19398100000001,120.59940399999999 114.153981,119.799404 115.123981,118.98940400000001" fill="none" stroke="#000000" stroke-width="0.012709999999999994"/>
	<path d="M 117.453981,114.179404 C 118.393981,113.319404 119.753981,112.949404 121.003981,113.199404" fill="none" stroke="#000000" stroke-width="0.012709999999999994"/>
	<path d="M 117.993981,116.23940400000001 C 118.533981,115.449404 119.583981,115.049404 120.50398100000001,115.309404 C 120.50398100000001,115.299404 120.50398100000001,115.299404 120.50398100000001,115.289404" fill="none" stroke="#000000" stroke-width="0.012709999999999994"/>
	<path d="M 117.243981,118.34940399999999 C 118.343981,117.949404 119.44398100000001,117.539404 120.533981,117.139404 C 119.293981,118.229404 118.053981,119.31940399999999 116.653981,120.589404 C 118.833981,119.389404 121.393981,118.909404 123.863981,119.229404 C 123.72398100000001,119.339404 123.573981,119.449404 123.433981,119.559404" fill="none" stroke="#000000" stroke-width="0.012709999999999994"/>
	<path d="M 119.763981,113.259404 C 119.623981,117.249404 119.47398100000001,121.23940400000001 119.333981,125.219404" fill="none" stroke="#000000" stroke-width="0.012709999999999994"/>
</svg>
