<?xml version="1.0" ?>
<svg xmlns="http://www.w3.org/2000/svg" xmlns:ev="http://www.w3.org/2001/xml-events" xmlns:xlink="http://www.w3.org/1999/xlink" baseProfile="full" height="572px" version="1.1" width="600px" x="0px" y="1200px">
	<defs/>
	<path class="st0" d="M 11.153981,16.819404 C 12.623981,16.519403999999998 14.033981,15.879404 14.673981,14.769403999999998 C 14.223981,18.089404 13.773981,21.409404 13.323981,24.729404 C 12.963981,23.619404 12.603981,22.509404 12.233981,21.409404 C 13.193981,20.599404 14.153981,19.799404 15.123981,18.989404" id="path1626" style="fill:none;stroke:#040000;stroke-width:0.5;stroke-linecap:round;stroke-linejoin:bevel;stroke-miterlimit:10"/>
	<path class="st0" d="M 17.453981,14.179404 C 18.393981,13.319404 19.753981,12.949404 21.003981,13.199404" id="path1628" style="fill:none;stroke:#040000;stroke-width:0.5;stroke-linecap:round;stroke-linejoin:bevel;stroke-miterlimit:10"/>
	<path class="st0" d="M 17.993981,16.239404 C 18.533981,15.449404000000001 19.583981,15.049404000000001 20.503981000000003,15.309404 C 20.503981000000003,15.299404000000001 20.503981000000003,15.299404000000001 20.503981000000003,15.289404000000001" id="path1630" style="fill:none;stroke:#040000;stroke-width:0.5;stroke-linecap:round;stroke-linejoin:bevel;stroke-miterlimit:10"/>
	<path class="st0" d="M 17.243981,18.349404 C 18.343981000000003,17.949404 19.443981,17.539404 20.533981,17.139404 C 19.293981000000002,18.229404 18.053981,19.319404 16.653981,20.589404 C 18.833981,19.389404 21.393981000000004,18.909404 23.863981000000003,19.229404 C 23.723981000000002,19.339404 23.573981000000003,19.449403999999998 23.433981000000003,19.559403999999997" id="path1632" style="fill:none;stroke:#040000;stroke-width:0.5;stroke-linecap:round;stroke-linejoin:bevel;stroke-miterlimit:10"/>
	<path class="st0" d="M 19.763981,13.259404 C 19.623981,17.249404 19.473981000000002,21.239404 19.333981,25.219404" id="path1634" style="fill:none;stroke:#040000;stroke-width:0.5;stroke-linecap:round;stroke-linejoin:bevel;stroke-miterlimit:10"/>
</svg>
