<?xml version="1.0" ?>
<svg xmlns="http://www.w3.org/2000/svg" xmlns:ev="http://www.w3.org/2001/xml-events" xmlns:xlink="http://www.w3.org/1999/xlink" baseProfile="full" height="226px" version="1.1" width="600px" x="0px" y="0px">
	<defs/>
	<path class="st0" d="M 11.153981,16.819404 C 12.623981,16.519403999999998 14.033981,15.879404 14.673981,14.769403999999998 C 14.223981,18.089404 13.773981,21.409404 13.323981,24.729404 C 12.963981,23.619404 12.603981,22.509404 12.233981,21.409404 C 13.193981,20.599404 14.153981,19.799404 15.123981,18.989404" id="path1626" style="fill:none;stroke:#040000;stroke-width:0.5;stroke-linecap:round;stroke-linejoin:bevel;stroke-miterlimit:10"/>
	<path class="st0" d="M 17.453981,14.179404 C 18.393981,13.319404 19.753981,12.949404 21.003981,13.199404" id="path1628" style="fill:none;stroke:#040000;stroke-width:0.5;stroke-linecap:round;stroke-linejoin:bevel;stroke-miterlimit:10"/>
	<path class="st0" d="M 17.993981,16.239404 C 18.533981,15.449404000000001 19.583981,15.049404000000001 20.503981000000003,15.309404 C 20.503981000000003,15.299404000000001 20.503981000000003,15.299404000000001 20.503981000000003,15.289404000000001" id="path1630" style="fill:none;stroke:#040000;stroke-width:0.5;stroke-linecap:round;stroke-linejoin:bevel;stroke-miterlimit:10"/>
	<path class="st0" d="M 17.243981,18.349404 C 18.343981000000003,17.949404 19.443981,17.539404 20.533981,17.139404 C 19.293981000000002,18.229404 18.053981,19.319404 16.653981,20.589404 C 18.833981,19.389404 21.393981000000004,18.909404 23.863981000000003,19.229404 C 23.723981000000002,19.339404 23.573981000000003,19.449403999999998 23.433981000000003,19.559403999999997" id="path1632" style="fill:none;stroke:#040000;stroke-width:0.5;stroke-linecap:round;stroke-linejoin:bevel;stroke-miterlimit:10"/>
	<path class="st0" d="M 19.763981,13.259404 C 19.623981,17.249404 19.473981000000002,21.239404 19.333981,25.219404" id="path1634" style="fill:none;stroke:#040000;stroke-width:0.5;stroke-linecap:round;stroke-linejoin:bevel;stroke-miterlimit:10"/>
	<path class="st0" d="M 11.153981,16.819404 C 12.623981,16.519403999999998 14.033981,15.879404 14.673981,14.769403999999998 C 14.223981,18.089404 13.773981,21.409404 13.323981,24.729404 C 12.963981,23.619404 12.603981,22.509404 12.233981,21.409404 C 13.193981,20.599404 14.153981,19.799404 15.123981,18.989404" id="path1626" style="fill:none;stroke:#040000;stroke-width:0.5;stroke-linecap:round;stroke-linejoin:bevel;stroke-miterlimit:10"/>
	<path class="st0" d="M 17.453981,14.179404 C 18.393981,13.319404 19.753981,12.949404 21.003981,13.199404" id="path1628" style="fill:none;stroke:#040000;stroke-width:0.5;stroke-linecap:round;stroke-linejoin:bevel;stroke-miterlimit:10"/>
	<path class="st0" d="M 17.993981,16.239404 C 18.533981,15.449404000000001 19.583981,15.049404000000001 20.503981000000003,15.309404 C 20.503981000000003,15.299404000000001 20.503981000000003,15.299404000000001 20.503981000000003,15.289404000000001" id="path1630" style="fill:none;stroke:#040000;stroke-width:0.5;stroke-linecap:round;stroke-linejoin:bevel;stroke-miterlimit:10"/>
	<path class="st0" d="M 17.243981,18.349404 C 18.343981000000003,17.949404 19.443981,17.539404 20.533981,17.139404 C 19.293981000000002,18.229404 18.053981,19.319404 16.653981,20.589404 C 18.833981,19.389404 21.393981000000004,18.909404 23.863981000000003,19.229404 C 23.723981000000002,19.339404 23.573981000000003,19.449403999999998 23.433981000000003,19.559403999999997" id="path1632" style="fill:none;stroke:#040000;stroke-width:0.5;stroke-linecap:round;stroke-linejoin:bevel;stroke-miterlimit:10"/>
	<path class="st0" d="M 19.763981,13.259404 C 19.623981,17.249404 19.473981000000002,21.239404 19.333981,25.219404" id="path1634" style="fill:none;stroke:#040000;stroke-width:0.5;stroke-linecap:round;stroke-linejoin:bevel;stroke-miterlimit:10"/>
	<path class="st0" d="M 33.775731,14.261329 C 34.455731,14.211329 35.145731,14.701329 35.315731,15.361329" id="path1636" style="fill:none;stroke:#040000;stroke-width:0.5;stroke-linecap:round;stroke-linejoin:bevel;stroke-miterlimit:10"/>
	<path class="st0" d="M 33.215731,17.291329 C 34.035731,17.021329 34.855731,16.751329000000002 35.675731,16.471329 C 35.365731,17.141329000000002 35.065731,17.821329000000002 34.755731,18.491329" id="path1638" style="fill:none;stroke:#040000;stroke-width:0.5;stroke-linecap:round;stroke-linejoin:bevel;stroke-miterlimit:10"/>
	<path class="st0" d="M 34.005731,18.871329 C 34.255731,18.711329 34.515730999999995,18.551329 34.765730999999995,18.401329" id="path1640" style="fill:none;stroke:#040000;stroke-width:0.5;stroke-linecap:round;stroke-linejoin:bevel;stroke-miterlimit:10"/>
	<path class="st0" d="M 33.835731,17.491329 C 34.175731000000006,20.511329 32.945731,23.671329 30.645731,25.661329000000002" id="path1642" style="fill:none;stroke:#040000;stroke-width:0.5;stroke-linecap:round;stroke-linejoin:bevel;stroke-miterlimit:10"/>
	<path class="st0" d="M 38.915731,13.311329 C 38.285731,14.531329000000001 37.655731,15.751329 37.075731,16.651329 C 38.195730999999995,15.711329000000001 39.505731,15.011329 40.905730999999996,14.601329 C 39.13573099999999,16.731329 37.375730999999995,18.861328999999998 35.605731,21.001329" id="path1644" style="fill:none;stroke:#040000;stroke-width:0.5;stroke-linecap:round;stroke-linejoin:bevel;stroke-miterlimit:10"/>
	<path class="st0" d="M 37.105731,17.531329 C 39.375731,19.401329 41.885731,21.001329 44.545730999999996,22.261329" id="path1646" style="fill:none;stroke:#040000;stroke-width:0.5;stroke-linecap:round;stroke-linejoin:bevel;stroke-miterlimit:10"/>
	<path class="st0" d="M 34.495731,21.701329 C 34.435731,22.921329 34.975730999999996,24.151329 35.915731,24.931329" id="path1648" style="fill:none;stroke:#040000;stroke-width:0.5;stroke-linecap:round;stroke-linejoin:bevel;stroke-miterlimit:10"/>
	<path class="st0" d="M 34.885731,22.531329 C 36.005731,21.491329 37.485731,20.861328999999998 39.015731,20.781329 C 39.365731000000004,20.761329 39.595731,21.291329 39.325731000000005,21.531329 C 38.535731000000006,22.261329 37.735731,22.991329 36.945731,23.711329 C 37.425731,23.051329 38.555731,23.001329 39.085731,23.631329" id="path1650" style="fill:none;stroke:#040000;stroke-width:0.5;stroke-linecap:round;stroke-linejoin:bevel;stroke-miterlimit:10"/>
</svg>
