<?xml version="1.0" ?>
<svg xmlns="http://www.w3.org/2000/svg" xmlns:ev="http://www.w3.org/2001/xml-events" xmlns:inkscape="http://www.inkscape.org/namespaces/inkscape" xmlns:sodipodi="http://sodipodi.sourceforge.net/DTD/sodipodi-0.dtd" xmlns:svg="http://www.w3.org/2000/svg" xmlns:xlink="http://www.w3.org/1999/xlink" baseProfile="full" height="4.2031732mm" id="svg3961" inkscape:version="1.1.1 (3bf5ae0d25, 2021-09-20)" sodipodi:docname="‚Í.svg" version="1.1" viewBox="0 0 14.001848 15.88601" width="3.7046559mm">
	<defs/>
	<path d="M 20.220616800000002,0.37431234 C 23.5163328,1.5441123399999999 26.5774388,3.2913804 29.2606168,5.5343124" fill="none" stroke="#000000" stroke-width="0.08517822931955706"/>
	<path d="M 17.140616719999997,13.694310399999999 C 16.23401672,15.428230399999999 16.540286719999997,17.547936399999998 17.90061672,18.9543124" fill="none" stroke="#000000" stroke-width="0.08517822931955706"/>
	<path d="M 17.90061672,18.9543124 C 19.2830528,20.2856 21.1420828,21.006156 23.0606168,20.95431" fill="none" stroke="#000000" stroke-width="0.08517822931955706"/>
	<path d="M 23.0606168,20.95431 C 24.9611008,20.88009 26.8348428,20.480988 28.6006168,19.7743104" fill="none" stroke="#000000" stroke-width="0.08517822931955706"/>
	<path d="M 28.6006168,19.7743104 C 30.361908800000002,19.063890400000002 32.1653328,18.4627524 34.0006168,17.974312400000002" fill="none" stroke="#000000" stroke-width="0.08517822931955706"/>
	<path d="M 44.931074,0.49999832 L 32.9310739,20.919998" fill="none" stroke="#000000" stroke-width="0.08517822931955706"/>
	<path d="M 32.9310739,20.919998 A 33.36,33.36 0.0 0,1 37.891074,15.1399984" fill="none" stroke="#000000" stroke-width="0.08517822931955706"/>
	<path d="M 37.891074,15.1399984 C 38.911074,14.2199984 40.611074,15.1399984 41.131074,16.4399984" fill="none" stroke="#000000" stroke-width="0.08517822931955706"/>
	<path d="M 41.131074,16.4399984 C 41.651074,17.7399984 41.531074000000004,19.1599984 41.991074,20.439998" fill="none" stroke="#000000" stroke-width="0.08517822931955706"/>
	<path d="M 41.991074,20.439998 C 42.451074,21.719998 43.991074,22.859997999999997 45.131074,22.099998" fill="none" stroke="#000000" stroke-width="0.08517822931955706"/>
	<path d="M 45.131074,22.099998 A 16.3,16.3 0.0 0,0 50.951074,15.2399984" fill="none" stroke="#000000" stroke-width="0.08517822931955706"/>
	<path d="M 51.3391446,0.49999832 A 27.86,27.86 0.0 0,0 50.8391446,20.359998" fill="none" stroke="#000000" stroke-width="0.08517822931955706"/>
	<path d="M 50.8391446,20.359998 L 52.8391446,14.9399984" fill="none" stroke="#000000" stroke-width="0.08517822931955706"/>
	<path d="M 55.2191446,10.3399984 A 14.72,14.72 0.0 0,1 66.5791446,5.259998400000001" fill="none" stroke="#000000" stroke-width="0.08517822931955706"/>
	<path d="M 61.1191446,14.1999984 A 16.58,16.58 0.0 0,0 68.839144,20.719998" fill="none" stroke="#000000" stroke-width="0.08517822931955706"/>
	<path d="M 65.4999983,6.4199984 L 74.3399984,3.3799984" fill="none" stroke="#000000" stroke-width="0.08517822931955706"/>
	<path d="M 74.3399984,3.3799984 L 74.8199984,3.0999983999999996" fill="none" stroke="#000000" stroke-width="0.08517822931955706"/>
	<path d="M 72.29999839999999,0.49999832 A 20.82,20.82 0.0 0,0 71.29999839999999,19.4599984" fill="none" stroke="#000000" stroke-width="0.08517822931955706"/>
	<path d="M 71.29999839999999,19.4599984 A 12.38,12.38 0.0 0,1 81.9799984,13.4599984" fill="none" stroke="#000000" stroke-width="0.08517822931955706"/>
	<path d="M 81.9799984,13.4599984 A 2.82,2.82 0.0 0,1 83.7599984,18.4199984" fill="none" stroke="#000000" stroke-width="0.08517822931955706"/>
	<path d="M 83.7599984,18.4199984 L 78.9199984,22.559998" fill="none" stroke="#000000" stroke-width="0.08517822931955706"/>
	<path d="M 89.8019772,8.1943134 C 93.6292952,6.6825014000000005 97.8505152,6.4855114 101.801984,7.6343114000000005" fill="none" stroke="#000000" stroke-width="0.08517822931955706"/>
	<path d="M 97.5219852,0.37431234 C 95.7419892,3.594312 95.8419892,7.4543114 95.5219792,11.1343114" fill="none" stroke="#000000" stroke-width="0.08517822931955706"/>
	<path d="M 95.5219792,11.1343114 C 95.2019832,14.8143114 94.4419812,18.8143114 91.5219812,21.134312" fill="none" stroke="#000000" stroke-width="0.08517822931955706"/>
	<path d="M 91.5219812,21.134312 C 90.2621752,21.97866 88.5789372,21.801918 87.5219832,20.714312" fill="none" stroke="#000000" stroke-width="0.08517822931955706"/>
	<path d="M 87.5219832,20.714312 C 84.6286472,17.860979399999998 88.9086472,13.5209794 91.8019832,16.3743114" fill="none" stroke="#000000" stroke-width="0.08517822931955706"/>
	<path d="M 91.8019832,16.3743114 L 100.3019912,23.454312" fill="none" stroke="#000000" stroke-width="0.08517822931955706"/>
	<path d="M 83.8019892,3.4543132 C 81.28542526,9.3221754 80.93804926,15.8938454 82.82198926,21.994312" fill="none" stroke="#000000" stroke-width="0.08517822931955706"/>
</svg>
