<?xml version="1.0" encoding="UTF-8" standalone="no"?>
<!-- Generator: Adobe Adobe Illustrator 24.2.0, SVG Export Plug-In . SVG Version: 6.00 Build 0)  -->

<svg
   version="1.1"
   id="レイヤー_1"
   x="0px"
   y="0px"
   width="100mm"
   height="148mm"
   viewBox="0 0 377.95278 559.37007"
   xml:space="preserve"
   sodipodi:docname="手書き事業資料用はがき 06 アートボード 1 コピー 3.svg"
   inkscape:version="1.1.1 (3bf5ae0d25, 2021-09-20)"
   xmlns:inkscape="http://www.inkscape.org/namespaces/inkscape"
   xmlns:sodipodi="http://sodipodi.sourceforge.net/DTD/sodipodi-0.dtd"
   xmlns="http://www.w3.org/2000/svg"
   xmlns:svg="http://www.w3.org/2000/svg"><defs
   id="defs2969" /><sodipodi:namedview
   id="namedview2967"
   pagecolor="#ffffff"
   bordercolor="#666666"
   borderopacity="1.0"
   inkscape:pageshadow="2"
   inkscape:pageopacity="0.0"
   inkscape:pagecheckerboard="0"
   showgrid="false"
   units="mm"
   inkscape:zoom="2.4237112"
   inkscape:cx="99.434289"
   inkscape:cy="159.2599"
   inkscape:window-width="1920"
   inkscape:window-height="1046"
   inkscape:window-x="-11"
   inkscape:window-y="-11"
   inkscape:window-maximized="1"
   inkscape:current-layer="レイヤー_1"
   inkscape:document-units="mm" />
<style
   type="text/css"
   id="style1624">
	.st0{fill:none;stroke:#040000;stroke-width:0.5;stroke-linecap:round;stroke-linejoin:bevel;stroke-miterlimit:10;}
	.st1{opacity:0.451;fill:none;stroke:#9FA0A0;stroke-width:0.5;stroke-miterlimit:10;}
	.st2{fill:none;stroke:#040000;stroke-linecap:round;stroke-linejoin:bevel;stroke-miterlimit:10;}
	
		.st3{fill:none;stroke:#040000;stroke-width:0.5;stroke-linecap:round;stroke-linejoin:bevel;stroke-miterlimit:10;stroke-dasharray:0,0,0,0,0,0;}
	.st4{fill:none;stroke:#525252;stroke-width:0.5;stroke-miterlimit:10;stroke-dasharray:0,0,0,0,0,0;}
	.st5{fill:none;stroke:#040000;stroke-width:0.7;stroke-linecap:round;stroke-linejoin:bevel;stroke-miterlimit:10;}
	.st6{fill:none;stroke:#000000;stroke-width:0.7;stroke-linecap:round;stroke-linejoin:bevel;stroke-miterlimit:10;}
	.st7{fill:none;stroke:#000000;stroke-width:0.5;stroke-linecap:round;stroke-linejoin:bevel;stroke-miterlimit:10;}
</style>






























































































































































































































































































































































































































































































































































































































































































<path
   class="st0"
   d="m 11.153981,16.819404 c 1.47,-0.3 2.88,-0.94 3.52,-2.05 -0.45,3.32 -0.9,6.64 -1.35,9.96 -0.36,-1.11 -0.72,-2.22 -1.09,-3.32 0.96,-0.81 1.92,-1.61 2.89,-2.42"
   id="path1626"
   style="fill:none;stroke:#040000;stroke-width:0.5;stroke-linecap:round;stroke-linejoin:bevel;stroke-miterlimit:10" /><path
   class="st0"
   d="m 17.453981,14.179404 c 0.94,-0.86 2.3,-1.23 3.55,-0.98"
   id="path1628"
   style="fill:none;stroke:#040000;stroke-width:0.5;stroke-linecap:round;stroke-linejoin:bevel;stroke-miterlimit:10" /><path
   class="st0"
   d="m 17.993981,16.239404 c 0.54,-0.79 1.59,-1.19 2.51,-0.93 0,-0.01 0,-0.01 0,-0.02"
   id="path1630"
   style="fill:none;stroke:#040000;stroke-width:0.5;stroke-linecap:round;stroke-linejoin:bevel;stroke-miterlimit:10" /><path
   class="st0"
   d="m 17.243981,18.349404 c 1.1,-0.4 2.2,-0.81 3.29,-1.21 -1.24,1.09 -2.48,2.18 -3.88,3.45 2.18,-1.2 4.74,-1.68 7.21,-1.36 -0.14,0.11 -0.29,0.22 -0.43,0.33"
   id="path1632"
   style="fill:none;stroke:#040000;stroke-width:0.5;stroke-linecap:round;stroke-linejoin:bevel;stroke-miterlimit:10" /><path
   class="st0"
   d="m 19.763981,13.259404 c -0.14,3.99 -0.29,7.98 -0.43,11.96"
   id="path1634"
   style="fill:none;stroke:#040000;stroke-width:0.5;stroke-linecap:round;stroke-linejoin:bevel;stroke-miterlimit:10" /><path
   class="st0"
   d="m 33.775731,14.261329 c 0.68,-0.05 1.37,0.44 1.54,1.1"
   id="path1636"
   style="fill:none;stroke:#040000;stroke-width:0.5;stroke-linecap:round;stroke-linejoin:bevel;stroke-miterlimit:10" /><path
   class="st0"
   d="m 33.215731,17.291329 c 0.82,-0.27 1.64,-0.54 2.46,-0.82 -0.31,0.67 -0.61,1.35 -0.92,2.02"
   id="path1638"
   style="fill:none;stroke:#040000;stroke-width:0.5;stroke-linecap:round;stroke-linejoin:bevel;stroke-miterlimit:10" /><path
   class="st0"
   d="m 34.005731,18.871329 c 0.25,-0.16 0.51,-0.32 0.76,-0.47"
   id="path1640"
   style="fill:none;stroke:#040000;stroke-width:0.5;stroke-linecap:round;stroke-linejoin:bevel;stroke-miterlimit:10" /><path
   class="st0"
   d="m 33.835731,17.491329 c 0.34,3.02 -0.89,6.18 -3.19,8.17"
   id="path1642"
   style="fill:none;stroke:#040000;stroke-width:0.5;stroke-linecap:round;stroke-linejoin:bevel;stroke-miterlimit:10" /><path
   class="st0"
   d="m 38.915731,13.311329 c -0.63,1.22 -1.26,2.44 -1.84,3.34 1.12,-0.94 2.43,-1.64 3.83,-2.05 -1.77,2.13 -3.53,4.26 -5.3,6.4"
   id="path1644"
   style="fill:none;stroke:#040000;stroke-width:0.5;stroke-linecap:round;stroke-linejoin:bevel;stroke-miterlimit:10" /><path
   class="st0"
   d="m 37.105731,17.531329 c 2.27,1.87 4.78,3.47 7.44,4.73"
   id="path1646"
   style="fill:none;stroke:#040000;stroke-width:0.5;stroke-linecap:round;stroke-linejoin:bevel;stroke-miterlimit:10" /><path
   class="st0"
   d="m 34.495731,21.701329 c -0.06,1.22 0.48,2.45 1.42,3.23"
   id="path1648"
   style="fill:none;stroke:#040000;stroke-width:0.5;stroke-linecap:round;stroke-linejoin:bevel;stroke-miterlimit:10" /><path
   class="st0"
   d="m 34.885731,22.531329 c 1.12,-1.04 2.6,-1.67 4.13,-1.75 0.35,-0.02 0.58,0.51 0.31,0.75 -0.79,0.73 -1.59,1.46 -2.38,2.18 0.48,-0.66 1.61,-0.71 2.14,-0.08"
   id="path1650"
   style="fill:none;stroke:#040000;stroke-width:0.5;stroke-linecap:round;stroke-linejoin:bevel;stroke-miterlimit:10" /></svg>
