<?xml version="1.0" encoding="UTF-8" standalone="no"?>
<svg
   x="0px"
   y="0px"
>
<path
   class="st0"
   d="m 11.153981,16.819404 c 1.47,-0.3 2.88,-0.94 3.52,-2.05 -0.45,3.32 -0.9,6.64 -1.35,9.96 -0.36,-1.11 -0.72,-2.22 -1.09,-3.32 0.96,-0.81 1.92,-1.61 2.89,-2.42"
   id="path1626"
   style="fill:none;stroke:#040000;stroke-width:0.5;stroke-linecap:round;stroke-linejoin:bevel;stroke-miterlimit:10" /><path
   class="st0"
   d="m 17.453981,14.179404 c 0.94,-0.86 2.3,-1.23 3.55,-0.98"
   id="path1628"
   style="fill:none;stroke:#040000;stroke-width:0.5;stroke-linecap:round;stroke-linejoin:bevel;stroke-miterlimit:10" /><path
   class="st0"
   d="m 17.993981,16.239404 c 0.54,-0.79 1.59,-1.19 2.51,-0.93 0,-0.01 0,-0.01 0,-0.02"
   id="path1630"
   style="fill:none;stroke:#040000;stroke-width:0.5;stroke-linecap:round;stroke-linejoin:bevel;stroke-miterlimit:10" /><path
   class="st0"
   d="m 17.243981,18.349404 c 1.1,-0.4 2.2,-0.81 3.29,-1.21 -1.24,1.09 -2.48,2.18 -3.88,3.45 2.18,-1.2 4.74,-1.68 7.21,-1.36 -0.14,0.11 -0.29,0.22 -0.43,0.33"
   id="path1632"
   style="fill:none;stroke:#040000;stroke-width:0.5;stroke-linecap:round;stroke-linejoin:bevel;stroke-miterlimit:10" /><path
   class="st0"
   d="m 19.763981,13.259404 c -0.14,3.99 -0.29,7.98 -0.43,11.96"
   id="path1634"
   style="fill:none;stroke:#040000;stroke-width:0.5;stroke-linecap:round;stroke-linejoin:bevel;stroke-miterlimit:10" /></svg>